<svg width="610" height="130" viewBox="0 0 610 130" fill="none" xmlns="http://www.w3.org/2000/svg">
<path d="M128.488 26.9766H152.512V35.4238H146.066L124.924 101H109.982L89.9141 36.498L71.4082 101H56.6133L35.0312 35.4238H28.4883V26.9766H52.5117V35.4238H46.0664L63.9863 92.3086L82.8828 26.9766H97.4824L117.6 92.3086L135.861 35.4238H128.488V26.9766ZM297.092 25.0234H313.059V92.6016H320.48V101H303.977V96.8496C302.349 98.5098 300.461 99.8118 298.312 100.756C296.164 101.667 293.723 102.123 290.988 102.123C287.57 102.123 284.38 101.537 281.418 100.365C278.488 99.1608 275.933 97.4193 273.752 95.1406C271.604 92.8294 269.911 90.0137 268.674 86.6934C267.469 83.3405 266.867 79.5156 266.867 75.2188C266.867 71.3125 267.453 67.7643 268.625 64.5742C269.797 61.3516 271.457 58.6172 273.605 56.3711C275.754 54.0924 278.342 52.3346 281.369 51.0977C284.396 49.8281 287.766 49.1934 291.477 49.1934C293.918 49.1934 296.148 49.4701 298.166 50.0234C300.184 50.5443 302.121 51.472 303.977 52.8066V33.4219H297.092V25.0234ZM292.16 94.2129C294.862 94.2129 297.124 93.8223 298.947 93.041C300.77 92.2272 302.447 91.0228 303.977 89.4277V61.1074C302.349 59.7402 300.477 58.7474 298.361 58.1289C296.245 57.5104 294.081 57.2012 291.867 57.2012C289.719 57.2012 287.701 57.6081 285.812 58.4219C283.924 59.2031 282.264 60.3587 280.832 61.8887C279.432 63.4186 278.326 65.2904 277.512 67.5039C276.698 69.7174 276.291 72.2565 276.291 75.1211C276.291 78.2461 276.682 80.9967 277.463 83.373C278.244 85.7493 279.335 87.7513 280.734 89.3789C282.134 90.974 283.811 92.1784 285.764 92.9922C287.717 93.806 289.849 94.2129 292.16 94.2129ZM325.266 50.4141H341.281V58.8125H338.938L347.775 91.0879L359.885 50.4141H367.502L379.074 90.9902L388.303 58.8125H385.373V50.4141H401.389V58.8125H397.043L383.176 101.781H374.777L363.303 61.4004L351.877 101.781H343.381L329.611 58.8125H325.266V50.4141ZM511.252 61.1074H501.975V57.9824C500.9 57.9824 499.794 58.194 498.654 58.6172C497.548 59.0078 496.506 59.6263 495.529 60.4727C494.553 61.2865 493.69 62.3444 492.941 63.6465C492.225 64.916 491.704 66.4297 491.379 68.1875V92.6016H499.973V101H474.875V92.6016H481.857L481.906 58.8125H474.875V50.4141H491.037V57.3965C491.623 56.3548 492.274 55.3945 492.99 54.5156C493.739 53.6042 494.553 52.8229 495.432 52.1719C496.343 51.4883 497.336 50.9674 498.41 50.6094C499.517 50.2188 500.705 50.0234 501.975 50.0234C503.667 50.0234 505.262 50.0234 506.76 50.0234C508.257 50.0234 509.755 50.056 511.252 50.1211V61.1074ZM521.359 25.0234H539.182V33.4219H539.084V71.2148H547.873L559.885 58.8125H556.857V50.4141H576.047V58.8125H569.65L554.27 74.6816L571.066 92.6016H577.17V101H566.477L545.773 78.3926H539.084V92.6016H543.283V101H521.652V92.6016H529.953V33.4219H521.359V25.0234Z" fill="#2C160B"/>
<path d="M164.513 69.1024C164.272 69.1024 164.144 69.002 164.079 68.9162C163.978 68.7831 163.958 68.5998 164.021 68.3731L164.067 68.2091C164.363 67.1354 164.498 66.6454 166.025 65.7299C166.437 65.482 166.874 65.3508 167.287 65.3508C167.86 65.3508 168.32 65.6152 168.458 66.0232C168.527 66.2287 168.603 66.7737 167.811 67.3785C166.903 68.0721 165.275 69.1024 164.513 69.1024ZM164.472 68.6191C164.48 68.6191 164.494 68.62 164.513 68.62C164.995 68.62 166.344 67.8908 167.519 66.9946C167.897 66.7062 168.078 66.4013 168.001 66.1775C167.932 65.9721 167.644 65.8332 167.287 65.8332C167.061 65.8332 166.7 65.8872 166.274 66.1428C164.913 66.9589 164.817 67.3062 164.532 68.3364L164.486 68.5023C164.469 68.5631 164.467 68.6007 164.467 68.6191C164.469 68.6191 164.47 68.6191 164.472 68.6191Z" fill="#2C160B"/>
<path d="M161.34 71.2892C161.029 71.2892 160.808 71.1976 160.684 71.0172C160.546 70.8156 160.55 70.5378 160.694 70.1693C161.383 68.4117 163.157 66.1843 163.231 66.0898C164.547 64.6958 166.778 63.2701 168.259 63.2701C169.198 63.2701 170.333 63.6656 170.686 64.42C170.825 64.718 170.892 65.1897 170.425 65.7473C170.303 65.893 170.169 66.0579 170.024 66.2364C168.978 67.5281 167.396 69.4795 165.535 70.0323C165.074 70.1693 164.541 70.3612 164.026 70.5464C162.969 70.9284 161.969 71.2892 161.34 71.2892ZM168.26 63.7524C166.928 63.7524 164.802 65.1299 163.596 66.4062C163.591 66.4129 161.805 68.6567 161.144 70.3448C161.054 70.5744 161.055 70.7037 161.083 70.7452C161.103 70.7751 161.182 70.8069 161.34 70.8069C161.884 70.8069 162.891 70.4442 163.864 70.093C164.386 69.9049 164.924 69.711 165.399 69.5702C167.118 69.0609 168.642 67.1788 169.651 65.9325C169.797 65.7521 169.933 65.5852 170.056 65.4367C170.304 65.1415 170.367 64.8743 170.249 64.6235C170.025 64.1431 169.132 63.7524 168.26 63.7524Z" fill="#2C160B"/>
<path d="M158.933 74.5603C158.547 74.5603 158.257 74.4398 158.07 74.2034C157.808 73.8706 157.77 73.3304 157.956 72.551L157.973 72.4835C158.8 69.0233 159.143 67.5917 162.207 65.0692C165.808 62.1038 167.753 61.1517 170.534 60.9974C171.606 60.9347 172.388 61.3784 172.745 62.2177C173.399 63.7534 172.425 66.2017 170.263 68.4541C166.92 71.9375 166.228 72.1362 164.382 72.6658C164.199 72.7188 164.003 72.7748 163.793 72.8375C163.255 72.9986 162.617 73.2803 161.94 73.5793C160.846 74.0607 159.714 74.5603 158.933 74.5603ZM170.72 61.4739C170.668 61.4739 170.615 61.4749 170.561 61.4778C167.901 61.6254 166.02 62.5514 162.512 65.4396C159.574 67.8589 159.265 69.1487 158.442 72.5944L158.425 72.6619C158.241 73.4307 158.336 73.7626 158.448 73.9044C158.54 74.0211 158.698 74.078 158.932 74.078C159.613 74.078 160.697 73.5996 161.746 73.1375C162.435 72.8327 163.087 72.5452 163.654 72.3754C163.867 72.3117 164.064 72.2548 164.249 72.2018C166.004 71.6982 166.661 71.5092 169.916 68.1194C172.381 65.5524 172.742 63.4379 172.303 62.4067C172.042 61.7961 171.495 61.4739 170.72 61.4739Z" fill="#2C160B"/>
<path d="M155.326 79.289C155.066 79.289 154.858 79.2013 154.705 79.0296C154.416 78.7054 154.343 78.0948 154.463 77.0482C154.956 72.824 157.32 68.3461 159.445 65.782C161.369 63.4592 163.759 61.0803 168.174 59.4192C170.291 58.6224 172.682 57.8082 174.357 57.8082C175.279 57.8082 175.923 58.061 176.273 58.5587C176.695 59.1568 176.68 60.0588 176.229 61.3138C174.262 66.7891 169.984 73.3478 163.874 75.3359C161.528 76.099 159.556 77.2257 158.117 78.0485C156.859 78.7691 155.95 79.289 155.326 79.289ZM174.358 58.2906C172.76 58.2906 170.422 59.0893 168.345 59.8707C164.036 61.4922 161.7 63.818 159.817 66.0898C157.738 68.5988 155.425 72.9773 154.945 77.1041C154.844 77.9646 154.885 78.5038 155.066 78.7074C155.107 78.7537 155.172 78.8058 155.327 78.8058C155.822 78.8058 156.729 78.2868 157.879 77.6299C159.337 76.7964 161.334 75.6552 163.727 74.8767C169.677 72.9407 173.937 66.2721 175.777 61.1508C176.165 60.0684 176.2 59.2899 175.881 58.8356C175.625 58.4748 175.114 58.2906 174.358 58.2906Z" fill="#2C160B"/>
<path d="M149.546 86.8837C149.487 86.8837 149.428 86.8625 149.382 86.8201C149.284 86.7294 149.278 86.577 149.368 86.4786C151.568 84.1017 154.142 82.1666 157.022 80.7273C159.138 79.6691 160.902 78.88 162.458 78.1836C165.432 76.8533 167.583 75.8925 169.709 74.133C173.023 71.3876 176.791 66.765 177.736 62.6228C178.008 61.4305 178.191 60.4678 178.351 59.6179C178.77 57.4098 178.999 56.1944 180.13 54.7243C180.711 53.9699 181.567 52.6541 182.476 51.2602C182.836 50.7065 183.205 50.1412 183.568 49.5923C183.643 49.4814 183.793 49.4515 183.903 49.5238C184.014 49.5972 184.044 49.7467 183.971 49.8576C183.607 50.4065 183.24 50.9708 182.88 51.5236C181.968 52.9252 181.104 54.2487 180.513 55.0185C179.453 56.3979 179.23 57.5729 178.827 59.7076C178.665 60.5614 178.481 61.5299 178.207 62.7308C177.171 67.2734 173.148 71.9133 170.017 74.5044C167.84 76.3064 165.666 77.2787 162.656 78.6244C161.105 79.318 159.346 80.1042 157.239 81.1585C154.411 82.5717 151.883 84.4721 149.723 86.8056C149.675 86.8577 149.611 86.8837 149.546 86.8837Z" fill="#2C160B"/>
<path d="M148.789 84.7084C148.738 84.7084 148.688 84.692 148.644 84.6592C148.538 84.5792 148.516 84.4277 148.597 84.3216C148.991 83.8007 149.274 83.4293 149.487 83.1515C150.124 82.3161 150.124 82.3161 150.593 81.5666L151.116 80.737C152.193 79.0373 152.88 76.5456 153.546 74.1369C154.051 72.3098 154.527 70.5841 155.144 69.3165C156.723 66.0772 159.032 62.0286 162.908 59.4443C164.94 58.0899 166.932 57.707 168.857 57.3375C170.766 56.9709 172.57 56.6246 174.429 55.4014C176.833 53.8194 179.046 51.0499 180.823 48.8245C180.908 48.7212 181.06 48.7039 181.163 48.7868C181.266 48.8698 181.284 49.0222 181.201 49.1264C179.402 51.3779 177.162 54.1812 174.694 55.8056C172.755 57.0809 170.82 57.4532 168.948 57.8131C167.069 58.1738 165.127 58.5472 163.175 59.8475C159.396 62.3672 157.13 66.3454 155.578 69.5297C154.98 70.7567 154.509 72.4622 154.01 74.2671C153.336 76.7105 152.637 79.236 151.523 80.9974L151.001 81.8251C150.52 82.593 150.52 82.593 149.869 83.4457C149.657 83.7245 149.374 84.0949 148.98 84.6139C148.934 84.6756 148.863 84.7084 148.789 84.7084Z" fill="#2C160B"/>
<path d="M150.817 89.4893C150.765 89.4893 150.712 89.4719 150.668 89.4372C150.563 89.3552 150.545 89.2037 150.627 89.0986C152.472 86.7506 154.192 85.0683 155.739 84.0969C157.346 83.0878 160.061 81.8955 162.937 80.6318C167.918 78.444 173.563 75.9649 175.383 73.6439C178.662 69.4573 180.54 60.7331 181.194 57.1754C181.602 54.9683 182.893 52.7081 185.141 50.2647C185.232 50.1682 185.384 50.1615 185.482 50.2502C185.58 50.3409 185.586 50.4933 185.496 50.5917C183.311 52.9657 182.06 55.1487 181.669 57.2632C180.848 61.7247 178.988 69.8239 175.763 73.942C173.868 76.3584 168.164 78.8646 163.131 81.0746C160.272 82.3306 157.572 83.5161 155.994 84.5068C154.495 85.4493 152.817 87.094 151.005 89.3966C150.958 89.4574 150.887 89.4893 150.817 89.4893Z" fill="#2C160B"/>
<path d="M152.222 91.734C152.169 91.734 152.117 91.7166 152.073 91.6829C151.968 91.6009 151.95 91.4494 152.032 91.3433C154.004 88.8217 155.61 87.1471 156.943 86.2259C158.415 85.2053 160.859 84.2068 163.688 83.0493C168.455 81.0997 173.858 78.8907 176.145 75.9137C179.685 71.3066 181.272 64.8106 182.714 57.9992C183.176 55.8056 184.543 53.4394 186.774 50.967C186.865 50.8686 187.017 50.8608 187.116 50.9496C187.214 51.0383 187.222 51.1908 187.133 51.2901C184.959 53.6988 183.632 55.9889 183.186 58.0986C181.733 64.9669 180.13 71.5198 176.529 76.207C174.162 79.2871 168.695 81.5232 163.872 83.4959C161.185 84.5946 158.647 85.6326 157.217 86.6214C155.927 87.5156 154.355 89.1574 152.413 91.6404C152.363 91.7022 152.293 91.734 152.222 91.734Z" fill="#2C160B"/>
<path d="M147.865 81.9795C147.814 81.9795 147.763 81.9631 147.72 81.9303C147.613 81.8492 147.593 81.6987 147.674 81.5917L147.925 81.2618C150.25 78.2086 150.341 78.09 151.492 74.1291C151.636 73.6362 151.772 73.1606 151.904 72.7005C153.27 67.9274 154.173 64.774 157.9 60.4977C162.076 55.7063 167.995 55.0416 170.521 54.7571C172.374 54.5497 176.864 49.6975 178.338 48.1029C178.43 48.0055 178.583 47.9997 178.68 48.0894C178.778 48.1801 178.783 48.3325 178.693 48.4309C174.484 52.9802 171.98 55.0792 170.575 55.2365C168.104 55.5143 162.316 56.1645 158.263 60.8141C154.607 65.0103 153.717 68.1223 152.368 72.8326C152.236 73.2937 152.1 73.7703 151.956 74.2632C150.778 78.3099 150.686 78.4315 148.309 81.5531L148.058 81.883C148.01 81.9467 147.938 81.9795 147.865 81.9795Z" fill="#2C160B"/>
<path d="M153.739 93.4308C153.688 93.4308 153.637 93.4144 153.592 93.3807C153.486 93.3006 153.466 93.1491 153.547 93.043C155.308 90.7365 156.837 89.1806 158.359 88.1455C160.409 86.7516 163.057 85.7802 165.861 84.7509C169.881 83.2769 174.039 81.7518 176.142 78.9032C176.457 78.4768 176.764 78.0659 177.06 77.6675C180.157 73.5185 182.202 70.777 183.114 64.6621C183.596 61.4382 185.839 57.0018 189.266 52.4892C189.348 52.3831 189.499 52.3638 189.605 52.4429C189.71 52.5229 189.731 52.6754 189.651 52.7815C186.271 57.2314 184.062 61.5877 183.591 64.7344C182.661 70.9699 180.587 73.75 177.448 77.9569C177.151 78.3543 176.845 78.7643 176.531 79.1907C174.341 82.155 170.115 83.7052 166.027 85.2043C163.252 86.223 160.631 87.1837 158.631 88.5449C157.154 89.55 155.661 91.0722 153.931 93.3353C153.883 93.398 153.811 93.4308 153.739 93.4308Z" fill="#2C160B"/>
<path d="M172.123 102.576C172.063 102.576 172.001 102.553 171.953 102.506C171.859 102.413 171.858 102.26 171.952 102.165C173.506 100.591 179.498 95.2164 181.13 95.799C181.277 95.8521 181.53 96.0035 181.566 96.4241C181.698 97.9261 181.21 100.035 180.325 101.796C180.265 101.915 180.119 101.96 180.001 101.903C179.882 101.844 179.834 101.698 179.894 101.579C180.742 99.892 181.21 97.8846 181.086 96.4646C181.07 96.2881 181 96.263 180.966 96.2505C179.949 95.8897 174.992 99.7695 172.294 102.501C172.248 102.552 172.186 102.576 172.123 102.576Z" fill="#2C160B"/>
<path d="M177.789 102.433C177.754 102.433 177.719 102.425 177.685 102.41C177.565 102.353 177.514 102.209 177.572 102.089C177.971 101.247 177.975 100.786 177.846 100.636C177.737 100.508 177.465 100.574 177.356 100.607C176.584 100.838 176.068 101.185 174.727 102.37C174.627 102.458 174.474 102.449 174.386 102.35C174.298 102.25 174.307 102.097 174.407 102.008C175.696 100.867 176.315 100.415 177.216 100.145C177.797 99.9711 178.089 100.18 178.209 100.321C178.518 100.681 178.448 101.364 178.005 102.296C177.965 102.382 177.879 102.433 177.789 102.433Z" fill="#2C160B"/>
<path d="M170.541 102.317C170.481 102.317 170.422 102.296 170.375 102.252C170.279 102.159 170.275 102.007 170.367 101.91C173.897 98.1971 176.245 95.8588 179.077 94.6906C179.816 94.3877 180.611 94.109 181.381 93.8417C184.526 92.7469 187.778 91.6134 189.195 88.1532C189.938 86.3339 190.878 82.8563 191.872 79.1723C193.321 73.8041 194.964 67.7181 196.578 64.4904C196.949 63.7486 197.397 62.9074 197.947 61.9186C198.012 61.8029 198.16 61.7594 198.275 61.825C198.392 61.8897 198.433 62.0363 198.369 62.153C197.823 63.136 197.379 63.9714 197.01 64.7055C195.418 67.8908 193.782 73.9507 192.337 79.2977C191.34 82.9952 190.397 86.4873 189.641 88.3346C188.141 91.9973 184.786 93.1665 181.54 94.2971C180.742 94.5749 179.988 94.8373 179.264 95.1363C176.518 96.2678 174.204 98.5753 170.718 102.241C170.669 102.292 170.605 102.317 170.541 102.317Z" fill="#2C160B"/>
<path d="M167.845 101.808C167.785 101.808 167.724 101.786 167.678 101.741C167.582 101.649 167.579 101.496 167.671 101.4C171.223 97.7003 174.037 95.008 176.225 93.8909C177.23 93.3778 178.395 93.0671 179.629 92.7401C181.578 92.2231 183.592 91.6877 185.111 90.2909C187.625 87.9757 189.716 81.6669 190.593 76.7839C191.303 72.8404 193.86 65.0161 196.533 59.6527C196.593 59.533 196.74 59.4848 196.856 59.5446C196.976 59.6044 197.024 59.7482 196.964 59.8678C194.309 65.1946 191.771 72.959 191.068 76.8687C190.177 81.829 188.034 88.2555 185.437 90.6449C183.832 92.1227 181.759 92.6745 179.754 93.206C178.545 93.5273 177.403 93.8302 176.443 94.3202C174.316 95.4074 171.537 98.0698 168.019 101.734C167.971 101.783 167.908 101.808 167.845 101.808Z" fill="#2C160B"/>
<path d="M155.701 95.5009C155.649 95.5009 155.596 95.4836 155.552 95.4488C155.447 95.3669 155.429 95.2154 155.511 95.1103C157.694 92.3398 159.445 90.6034 160.714 89.9484C161.693 89.4449 162.867 88.9162 164.111 88.3558C167.429 86.8606 171.56 84.9998 175.506 82.0875C180.641 78.2984 182.144 74.0809 183.598 70.0014L183.833 69.3406C184.196 68.3335 184.533 67.312 184.89 66.2306C186.007 62.8485 187.162 59.3507 189.063 56.4799C189.557 55.7323 190.225 54.8217 191.048 53.776C191.13 53.6709 191.281 53.6535 191.386 53.7355C191.491 53.8175 191.51 53.9699 191.427 54.0741C190.613 55.1101 189.954 56.0092 189.467 56.7471C187.601 59.5639 186.456 63.0309 185.349 66.383C185.006 67.42 184.652 68.4917 184.287 69.5046L184.052 70.1644C182.644 74.1185 181.047 78.6003 175.793 82.4763C171.804 85.4204 167.648 87.2918 164.309 88.7966C163.071 89.3542 161.903 89.8809 160.935 90.3796C159.728 91.0028 158.03 92.6938 155.89 95.4093C155.843 95.4691 155.772 95.5009 155.701 95.5009Z" fill="#2C160B"/>
<path d="M164.917 100.92C164.854 100.92 164.79 100.895 164.742 100.845C164.65 100.748 164.655 100.595 164.751 100.504L165.01 100.259C169.063 96.4183 172.264 93.3845 174.27 92.5674C175.464 92.0803 177.092 91.6337 178.666 91.2025C180.625 90.6661 182.649 90.1105 183.416 89.5635C184.702 88.6452 188.06 82.3981 188.573 79.0122C189.046 75.8877 189.96 71.2921 191.619 67.1374C192.498 64.938 193.955 61.4932 195.409 58.4189C195.466 58.2983 195.611 58.2481 195.729 58.3041C195.85 58.361 195.902 58.5047 195.844 58.6253C194.396 61.689 192.943 65.1232 192.067 67.3158C190.424 71.4272 189.519 75.9842 189.05 79.0826C188.545 82.4174 185.202 88.8796 183.697 89.9552C182.86 90.5533 180.885 91.0954 178.794 91.6674C177.234 92.0948 175.62 92.5375 174.452 93.0141C172.53 93.7974 169.359 96.8032 165.343 100.609L165.084 100.854C165.036 100.898 164.976 100.92 164.917 100.92Z" fill="#2C160B"/>
<path d="M158.339 97.519C158.28 97.519 158.221 97.4978 158.174 97.4544C158.077 97.3627 158.072 97.2103 158.164 97.1129C160.773 94.3289 163.456 92.2588 166.138 90.9575L167.275 90.4076C171.365 88.432 175.228 86.5673 178.445 83.7168C181.6 80.9232 184.056 76.0941 185.747 69.3638C185.933 68.6191 186.101 67.938 186.254 67.311C187.339 62.8929 187.787 61.0649 190.028 57.9095C190.646 57.0385 191.44 55.9629 192.266 54.8815C192.346 54.7754 192.498 54.7551 192.604 54.8362C192.71 54.9172 192.73 55.0687 192.649 55.1748C191.827 56.2513 191.036 57.3221 190.422 58.1893C188.233 61.2694 187.823 62.946 186.722 67.4268C186.569 68.0548 186.401 68.7358 186.214 69.4824C184.5 76.3093 181.993 81.2193 178.764 84.0795C175.497 86.9725 171.605 88.8516 167.484 90.8427L166.348 91.3915C163.719 92.6668 161.084 94.7032 158.514 97.4428C158.469 97.4939 158.404 97.519 158.339 97.519Z" fill="#2C160B"/>
<path d="M161.443 99.4049C161.391 99.4049 161.338 99.3875 161.294 99.3528C161.189 99.2708 161.172 99.1193 161.254 99.0142C162.628 97.2653 163.761 95.9707 166.854 94.0028C171.385 91.1195 173.625 90.1259 177.865 88.3249C181.858 86.63 183.611 83.7264 185.453 78.9611C186.544 76.1385 187.387 72.7931 188.202 69.5577C188.67 67.6978 189.113 65.9412 189.589 64.3264C190.198 62.2649 191.659 59.397 193.705 56.2513C193.779 56.1394 193.927 56.1095 194.04 56.1809C194.151 56.2532 194.183 56.4028 194.111 56.5147C192.089 59.6227 190.648 62.4453 190.053 64.4634C189.579 66.0695 189.138 67.8203 188.67 69.6763C187.851 72.9253 187.004 76.2851 185.903 79.1347C184.31 83.2595 182.619 86.8316 178.053 88.7696C173.837 90.559 171.612 91.5469 167.113 94.4099C164.084 96.3363 162.976 97.602 161.633 99.3123C161.585 99.3721 161.514 99.4049 161.443 99.4049Z" fill="#2C160B"/>
<path d="M182.676 101.387C182.653 101.387 182.63 101.384 182.607 101.377C182.48 101.339 182.406 101.205 182.445 101.077C182.562 100.68 182.662 100.294 182.759 99.9181C183.103 98.5955 183.428 97.3454 184.373 96.1058C185.273 94.9251 186.438 94.2006 187.563 93.5003C189.021 92.5935 190.398 91.7369 191.114 89.9725C191.598 88.7812 192.218 86.522 192.936 83.9068C194.167 79.4174 195.701 73.8301 197.487 70.1017C198.233 68.5371 198.897 66.9724 199.502 65.5139C199.552 65.3904 199.695 65.3325 199.816 65.3836C199.94 65.4348 199.998 65.5756 199.947 65.6991C199.34 67.1644 198.675 68.7358 197.922 70.3111C196.156 74.0009 194.629 79.564 193.401 84.0351C192.679 86.6657 192.055 88.9375 191.561 90.1549C190.785 92.0649 189.278 93.0035 187.819 93.9122C186.73 94.5894 185.604 95.2907 184.758 96.4C183.871 97.5634 183.573 98.7113 183.227 100.042C183.128 100.424 183.027 100.813 182.908 101.216C182.876 101.32 182.781 101.387 182.676 101.387Z" fill="#2C160B"/>
<path d="M184.328 100.933C184.308 100.933 184.288 100.93 184.268 100.925C184.139 100.892 184.062 100.76 184.095 100.631C184.447 99.264 184.807 98.2762 186.548 97.0405C187.632 96.2707 188.69 95.7826 189.623 95.3524C191.415 94.5257 192.83 93.8726 193.532 91.706C193.832 90.7819 194.203 89.1401 194.676 87.0612C195.913 81.6081 197.784 73.3651 200.385 69.6127C200.46 69.5027 200.609 69.4776 200.72 69.5519C200.829 69.6281 200.857 69.7776 200.78 69.8876C198.232 73.5629 196.375 81.7508 195.146 87.1683C194.672 89.2587 194.297 90.9102 193.992 91.8546C193.226 94.2218 191.65 94.9482 189.826 95.7903C188.912 96.2129 187.876 96.6904 186.827 97.4341C185.217 98.5772 184.898 99.4493 184.562 100.751C184.533 100.86 184.436 100.933 184.328 100.933Z" fill="#2C160B"/>
<path d="M196.186 91.4157C196.166 91.4157 196.145 91.4128 196.125 91.407C195.995 91.3723 195.919 91.2401 195.954 91.1118C196.132 90.4481 196.382 89.2201 196.699 87.6651C197.652 82.9894 199.092 75.9244 200.913 72.3445C200.973 72.2249 201.119 72.1796 201.237 72.2394C201.356 72.2992 201.403 72.4449 201.342 72.5635C199.552 76.0845 198.062 83.3956 197.171 87.7625C196.853 89.3243 196.601 90.5591 196.419 91.2372C196.39 91.3452 196.294 91.4157 196.186 91.4157Z" fill="#2C160B"/>
<path d="M147.307 78.1556C147.266 78.1556 147.225 78.145 147.187 78.1238C147.071 78.0582 147.031 77.9106 147.097 77.7948C148.969 74.5227 149.866 71.8535 150.815 69.0271C151.065 68.2853 151.319 67.5281 151.597 66.7399C153.438 61.527 156.825 55.8027 160.244 54.7667C161.417 54.4108 162.784 54.2439 164.232 54.0654C166.945 53.7326 169.75 53.3873 171.68 51.7811C172.706 50.9255 173.639 50.0303 174.718 48.9933C175.03 48.6933 175.351 48.3856 175.687 48.0672C175.783 47.9756 175.936 47.9794 176.028 48.0759C176.12 48.1724 176.116 48.3248 176.019 48.4174C175.684 48.7357 175.364 49.0425 175.053 49.3415C173.967 50.3853 173.028 51.2863 171.989 52.1525C169.951 53.8503 167.074 54.2034 164.292 54.5448C162.866 54.7204 161.518 54.8863 160.385 55.2288C157.128 56.2156 153.854 61.8019 152.054 66.901C151.776 67.6863 151.523 68.4416 151.274 69.1815C150.317 72.031 149.413 74.7224 147.517 78.035C147.472 78.1122 147.39 78.1556 147.307 78.1556Z" fill="#2C160B"/>
<path d="M158.594 53.2175C158.475 53.2175 158.372 53.1307 158.356 53.0091C158.337 52.877 158.43 52.7554 158.561 52.7371L159.444 52.6165C162.962 52.139 167.781 51.4859 169.965 49.7554C170.724 49.1534 171.004 48.9103 171.8 48.0749C171.893 47.9775 172.045 47.9756 172.142 48.0663C172.238 48.1579 172.242 48.3103 172.15 48.4077C171.333 49.2653 171.046 49.5161 170.265 50.1335C167.977 51.9461 163.084 52.6098 159.509 53.095L158.628 53.2156C158.617 53.2165 158.606 53.2175 158.594 53.2175Z" fill="#2C160B"/>
<path d="M147.241 72.4371C147.205 72.4371 147.17 72.4294 147.136 72.413C147.016 72.3552 146.966 72.2114 147.024 72.0908C149.136 67.7239 151.659 62.0122 152.407 59.0787C152.44 58.9494 152.574 58.8713 152.7 58.9041C152.829 58.9369 152.907 59.0681 152.875 59.1973C152.118 62.1656 149.581 67.912 147.459 72.3002C147.418 72.388 147.331 72.4371 147.241 72.4371Z" fill="#2C160B"/>
<path d="M224.321 69.1024C224.08 69.1024 223.952 69.002 223.887 68.9162C223.786 68.7831 223.767 68.5998 223.829 68.3731L223.875 68.2091C224.171 67.1354 224.306 66.6454 225.833 65.7299C226.245 65.482 226.682 65.3508 227.095 65.3508C227.668 65.3508 228.128 65.6152 228.266 66.0232C228.335 66.2287 228.412 66.7737 227.62 67.3785C226.711 68.0721 225.083 69.1024 224.321 69.1024ZM224.28 68.6191C224.289 68.6191 224.302 68.62 224.321 68.62C224.804 68.62 226.152 67.8908 227.327 66.9946C227.705 66.7062 227.886 66.4013 227.81 66.1775C227.74 65.9721 227.453 65.8332 227.096 65.8332C226.869 65.8332 226.508 65.8872 226.082 66.1428C224.721 66.9589 224.625 67.3062 224.341 68.3364L224.294 68.5023C224.277 68.5631 224.275 68.6007 224.275 68.6191C224.277 68.6191 224.278 68.6191 224.28 68.6191Z" fill="#2C160B"/>
<path d="M221.149 71.2892C220.837 71.2892 220.616 71.1976 220.493 71.0172C220.355 70.8156 220.359 70.5378 220.502 70.1693C221.191 68.4117 222.965 66.1843 223.039 66.0898C224.355 64.6958 226.586 63.2701 228.067 63.2701C229.007 63.2701 230.141 63.6656 230.494 64.42C230.633 64.718 230.701 65.1897 230.234 65.7473C230.111 65.893 229.977 66.0579 229.832 66.2364C228.787 67.5281 227.205 69.4795 225.343 70.0323C224.882 70.1693 224.349 70.3612 223.834 70.5464C222.777 70.9284 221.778 71.2892 221.149 71.2892ZM228.068 63.7524C226.736 63.7524 224.61 65.1299 223.404 66.4062C223.399 66.4129 221.614 68.6567 220.952 70.3448C220.862 70.5744 220.863 70.7037 220.891 70.7452C220.911 70.7751 220.99 70.8069 221.149 70.8069C221.693 70.8069 222.699 70.4442 223.672 70.093C224.194 69.9049 224.732 69.711 225.207 69.5702C226.926 69.0609 228.45 67.1788 229.459 65.9325C229.605 65.7521 229.741 65.5852 229.864 65.4367C230.112 65.1415 230.175 64.8743 230.057 64.6235C229.833 64.1431 228.94 63.7524 228.068 63.7524Z" fill="#2C160B"/>
<path d="M218.741 74.5603C218.355 74.5603 218.066 74.4398 217.878 74.2034C217.616 73.8706 217.578 73.3304 217.765 72.551L217.781 72.4835C218.609 69.0233 218.951 67.5917 222.015 65.0692C225.616 62.1038 227.562 61.1517 230.343 60.9974C231.414 60.9347 232.196 61.3784 232.554 62.2177C233.208 63.7534 232.233 66.2017 230.072 68.4541C226.728 71.9375 226.037 72.1362 224.19 72.6658C224.007 72.7188 223.811 72.7748 223.601 72.8375C223.063 72.9986 222.425 73.2803 221.749 73.5793C220.654 74.0607 219.522 74.5603 218.741 74.5603ZM230.528 61.4739C230.476 61.4739 230.423 61.4749 230.369 61.4778C227.709 61.6254 225.828 62.5514 222.321 65.4396C219.382 67.8589 219.074 69.1487 218.25 72.5944L218.233 72.6619C218.049 73.4307 218.145 73.7626 218.257 73.9044C218.348 74.0211 218.506 74.078 218.74 74.078C219.421 74.078 220.505 73.5996 221.554 73.1375C222.244 72.8327 222.896 72.5452 223.462 72.3754C223.675 72.3117 223.872 72.2548 224.057 72.2018C225.813 71.6982 226.47 71.5092 229.724 68.1194C232.189 65.5524 232.55 63.4379 232.111 62.4067C231.85 61.7961 231.303 61.4739 230.528 61.4739Z" fill="#2C160B"/>
<path d="M215.134 79.289C214.875 79.289 214.666 79.2013 214.513 79.0296C214.224 78.7054 214.151 78.0948 214.272 77.0482C214.765 72.824 217.128 68.3461 219.253 65.782C221.178 63.4592 223.567 61.0803 227.982 59.4192C230.1 58.6224 232.49 57.8082 234.166 57.8082C235.087 57.8082 235.731 58.061 236.081 58.5587C236.503 59.1568 236.489 60.0588 236.037 61.3138C234.07 66.7891 229.792 73.3478 223.682 75.3359C221.336 76.099 219.364 77.2257 217.925 78.0485C216.667 78.7691 215.758 79.289 215.134 79.289ZM234.167 58.2906C232.568 58.2906 230.23 59.0893 228.153 59.8707C223.844 61.4922 221.508 63.818 219.625 66.0898C217.547 68.5988 215.233 72.9773 214.753 77.1041C214.653 77.9646 214.693 78.5038 214.875 78.7074C214.915 78.7537 214.981 78.8058 215.135 78.8058C215.63 78.8058 216.538 78.2868 217.688 77.6299C219.145 76.7964 221.142 75.6552 223.535 74.8767C229.485 72.9407 233.745 66.2721 235.586 61.1508C235.973 60.0684 236.008 59.2899 235.689 58.8356C235.433 58.4748 234.922 58.2906 234.167 58.2906Z" fill="#2C160B"/>
<path d="M209.354 86.8837C209.295 86.8837 209.236 86.8625 209.19 86.8201C209.092 86.7294 209.087 86.577 209.176 86.4786C211.376 84.1017 213.95 82.1666 216.83 80.7273C218.946 79.6691 220.71 78.88 222.267 78.1836C225.241 76.8533 227.391 75.8925 229.517 74.133C232.832 71.3876 236.599 66.765 237.544 62.6228C237.816 61.4305 237.999 60.4678 238.159 59.6179C238.578 57.4098 238.808 56.1944 239.938 54.7243C240.519 53.9699 241.375 52.6541 242.284 51.2602C242.644 50.7065 243.013 50.1412 243.376 49.5923C243.451 49.4814 243.601 49.4515 243.711 49.5238C243.822 49.5972 243.853 49.7467 243.779 49.8576C243.416 50.4065 243.048 50.9708 242.688 51.5236C241.776 52.9252 240.912 54.2487 240.321 55.0185C239.261 56.3979 239.038 57.5729 238.635 59.7076C238.473 60.5614 238.29 61.5299 238.016 62.7308C236.98 67.2734 232.956 71.9133 229.826 74.5044C227.648 76.3064 225.474 77.2787 222.464 78.6244C220.913 79.318 219.154 80.1042 217.047 81.1585C214.22 82.5717 211.691 84.4721 209.531 86.8056C209.483 86.8577 209.419 86.8837 209.354 86.8837Z" fill="#2C160B"/>
<path d="M208.598 84.7084C208.546 84.7084 208.496 84.692 208.452 84.6592C208.346 84.5792 208.325 84.4277 208.406 84.3216C208.799 83.8007 209.082 83.4293 209.295 83.1515C209.933 82.3161 209.933 82.3161 210.402 81.5666L210.924 80.737C212.001 79.0373 212.689 76.5456 213.354 74.1369C213.859 72.3098 214.335 70.5841 214.953 69.3165C216.531 66.0772 218.84 62.0286 222.716 59.4443C224.749 58.0899 226.74 57.707 228.665 57.3375C230.574 56.9709 232.378 56.6246 234.237 55.4014C236.641 53.8194 238.854 51.0499 240.632 48.8245C240.717 48.7212 240.868 48.7039 240.971 48.7868C241.074 48.8698 241.092 49.0222 241.009 49.1264C239.21 51.3779 236.97 54.1812 234.502 55.8056C232.563 57.0809 230.628 57.4532 228.756 57.8131C226.878 58.1738 224.935 58.5472 222.983 59.8475C219.204 62.3672 216.938 66.3454 215.386 69.5297C214.788 70.7567 214.317 72.4622 213.818 74.2671C213.144 76.7105 212.446 79.236 211.331 80.9974L210.81 81.8251C210.328 82.593 210.328 82.593 209.677 83.4457C209.465 83.7245 209.182 84.0949 208.789 84.6139C208.742 84.6756 208.671 84.7084 208.598 84.7084Z" fill="#2C160B"/>
<path d="M210.625 89.4893C210.573 89.4893 210.52 89.4719 210.476 89.4372C210.372 89.3552 210.353 89.2037 210.435 89.0986C212.281 86.7506 214.001 85.0683 215.547 84.0969C217.154 83.0878 219.87 81.8955 222.745 80.6318C227.727 78.444 233.372 75.9649 235.191 73.6439C238.47 69.4573 240.348 60.7331 241.002 57.1754C241.41 54.9683 242.701 52.7081 244.949 50.2647C245.04 50.1682 245.193 50.1615 245.29 50.2502C245.388 50.3409 245.394 50.4933 245.304 50.5917C243.12 52.9657 241.868 55.1487 241.478 57.2632C240.656 61.7247 238.796 69.8239 235.571 73.942C233.677 76.3584 227.973 78.8646 222.939 81.0746C220.08 82.3306 217.38 83.5161 215.803 84.5068C214.304 85.4493 212.625 87.094 210.813 89.3966C210.766 89.4574 210.696 89.4893 210.625 89.4893Z" fill="#2C160B"/>
<path d="M212.03 91.734C211.978 91.734 211.926 91.7166 211.881 91.6829C211.776 91.6009 211.758 91.4494 211.84 91.3433C213.813 88.8217 215.419 87.1471 216.751 86.2259C218.223 85.2053 220.667 84.2068 223.497 83.0493C228.263 81.0997 233.666 78.8907 235.953 75.9137C239.493 71.3066 241.08 64.8106 242.522 57.9992C242.984 55.8056 244.351 53.4394 246.583 50.967C246.673 50.8686 246.826 50.8608 246.924 50.9496C247.022 51.0383 247.03 51.1908 246.941 51.2901C244.767 53.6988 243.44 55.9889 242.994 58.0986C241.541 64.9669 239.938 71.5198 236.337 76.207C233.97 79.2871 228.503 81.5232 223.68 83.4959C220.993 84.5946 218.455 85.6326 217.026 86.6214C215.735 87.5156 214.164 89.1574 212.221 91.6404C212.172 91.7022 212.101 91.734 212.03 91.734Z" fill="#2C160B"/>
<path d="M207.673 81.9795C207.622 81.9795 207.571 81.9631 207.528 81.9303C207.422 81.8492 207.401 81.6987 207.482 81.5917L207.733 81.2618C210.058 78.2086 210.149 78.09 211.301 74.1291C211.444 73.6362 211.58 73.1606 211.712 72.7005C213.078 67.9274 213.981 64.774 217.708 60.4977C221.885 55.7063 227.803 55.0416 230.329 54.7571C232.182 54.5497 236.672 49.6975 238.147 48.1029C238.238 48.0055 238.391 47.9997 238.488 48.0894C238.587 48.1801 238.591 48.3325 238.502 48.4309C234.292 52.9802 231.789 55.0792 230.383 55.2365C227.912 55.5143 222.124 56.1645 218.071 60.8141C214.415 65.0103 213.525 68.1223 212.176 72.8326C212.044 73.2937 211.908 73.7703 211.765 74.2632C210.587 78.3099 210.494 78.4315 208.117 81.5531L207.866 81.883C207.818 81.9467 207.746 81.9795 207.673 81.9795Z" fill="#2C160B"/>
<path d="M213.547 93.4308C213.496 93.4308 213.445 93.4144 213.401 93.3807C213.294 93.3006 213.274 93.1491 213.355 93.043C215.117 90.7365 216.646 89.1806 218.167 88.1455C220.217 86.7516 222.865 85.7802 225.669 84.7509C229.69 83.2769 233.847 81.7518 235.95 78.9032C236.266 78.4768 236.572 78.0659 236.869 77.6675C239.965 73.5185 242.01 70.777 242.922 64.6621C243.404 61.4382 245.647 57.0018 249.074 52.4892C249.156 52.3831 249.307 52.3638 249.413 52.4429C249.518 52.5229 249.539 52.6754 249.459 52.7815C246.079 57.2314 243.87 61.5877 243.399 64.7344C242.469 70.9699 240.395 73.75 237.256 77.9569C236.959 78.3543 236.653 78.7643 236.339 79.1907C234.149 82.155 229.923 83.7052 225.835 85.2043C223.061 86.223 220.44 87.1837 218.439 88.5449C216.962 89.55 215.469 91.0722 213.739 93.3353C213.691 93.398 213.62 93.4308 213.547 93.4308Z" fill="#2C160B"/>
<path d="M231.932 102.576C231.871 102.576 231.809 102.553 231.762 102.506C231.667 102.413 231.666 102.26 231.76 102.165C233.314 100.591 239.306 95.2164 240.938 95.799C241.085 95.8521 241.338 96.0035 241.374 96.4241C241.507 97.9261 241.019 100.035 240.133 101.796C240.073 101.915 239.928 101.96 239.809 101.903C239.69 101.844 239.642 101.698 239.702 101.579C240.551 99.892 241.019 97.8846 240.894 96.4646C240.879 96.2881 240.808 96.263 240.774 96.2505C239.758 95.8897 234.8 99.7695 232.102 102.501C232.056 102.552 231.994 102.576 231.932 102.576Z" fill="#2C160B"/>
<path d="M237.597 102.433C237.562 102.433 237.527 102.425 237.494 102.41C237.373 102.353 237.322 102.209 237.38 102.089C237.779 101.247 237.783 100.786 237.654 100.636C237.545 100.508 237.274 100.574 237.164 100.607C236.392 100.838 235.876 101.185 234.535 102.37C234.435 102.458 234.282 102.449 234.195 102.35C234.106 102.25 234.115 102.097 234.215 102.008C235.505 100.867 236.123 100.415 237.024 100.145C237.606 99.9711 237.897 100.18 238.017 100.321C238.326 100.681 238.256 101.364 237.813 102.296C237.773 102.382 237.688 102.433 237.597 102.433Z" fill="#2C160B"/>
<path d="M230.349 102.317C230.29 102.317 230.23 102.296 230.184 102.252C230.087 102.159 230.083 102.007 230.175 101.91C233.706 98.1971 236.053 95.8588 238.886 94.6906C239.625 94.3877 240.419 94.109 241.189 93.8417C244.334 92.7469 247.586 91.6134 249.003 88.1532C249.747 86.3339 250.686 82.8563 251.68 79.1723C253.13 73.8041 254.772 67.7181 256.386 64.4904C256.758 63.7486 257.205 62.9074 257.755 61.9186C257.82 61.8029 257.968 61.7594 258.083 61.825C258.2 61.8897 258.241 62.0363 258.178 62.153C257.632 63.136 257.187 63.9714 256.818 64.7055C255.226 67.8908 253.59 73.9507 252.146 79.2977C251.148 82.9952 250.205 86.4873 249.45 88.3346C247.95 91.9973 244.594 93.1665 241.348 94.2971C240.551 94.5749 239.796 94.8373 239.072 95.1363C236.326 96.2678 234.012 98.5753 230.526 102.241C230.477 102.292 230.413 102.317 230.349 102.317Z" fill="#2C160B"/>
<path d="M227.653 101.808C227.593 101.808 227.533 101.786 227.486 101.741C227.39 101.649 227.387 101.496 227.48 101.4C231.031 97.7003 233.845 95.008 236.033 93.8909C237.038 93.3778 238.204 93.0671 239.437 92.7401C241.386 92.2231 243.4 91.6877 244.92 90.2909C247.433 87.9757 249.524 81.6669 250.402 76.7839C251.112 72.8404 253.668 65.0161 256.341 59.6527C256.401 59.533 256.548 59.4848 256.664 59.5446C256.784 59.6044 256.832 59.7482 256.772 59.8678C254.117 65.1946 251.579 72.959 250.876 76.8687C249.985 81.829 247.842 88.2555 245.246 90.6449C243.64 92.1227 241.567 92.6745 239.562 93.206C238.353 93.5273 237.211 93.8302 236.251 94.3202C234.124 95.4074 231.345 98.0698 227.827 101.734C227.78 101.783 227.716 101.808 227.653 101.808Z" fill="#2C160B"/>
<path d="M215.509 95.5009C215.457 95.5009 215.404 95.4836 215.36 95.4488C215.256 95.3669 215.237 95.2154 215.319 95.1103C217.502 92.3398 219.253 90.6034 220.523 89.9484C221.502 89.4449 222.676 88.9162 223.919 88.3558C227.238 86.8606 231.368 84.9998 235.315 82.0875C240.449 78.2984 241.952 74.0809 243.406 70.0014L243.641 69.3406C244.004 68.3335 244.342 67.312 244.699 66.2306C245.816 62.8485 246.97 59.3507 248.872 56.4799C249.366 55.7323 250.033 54.8217 250.856 53.776C250.938 53.6709 251.089 53.6535 251.195 53.7355C251.299 53.8175 251.318 53.9699 251.235 54.0741C250.421 55.1101 249.762 56.0092 249.275 56.7471C247.409 59.5639 246.264 63.0309 245.157 66.383C244.814 67.42 244.46 68.4917 244.096 69.5046L243.86 70.1644C242.452 74.1185 240.855 78.6003 235.601 82.4763C231.612 85.4204 227.457 87.2918 224.117 88.7966C222.879 89.3542 221.711 89.8809 220.744 90.3796C219.536 91.0028 217.838 92.6938 215.698 95.4093C215.651 95.4691 215.581 95.5009 215.509 95.5009Z" fill="#2C160B"/>
<path d="M224.726 100.92C224.662 100.92 224.598 100.895 224.55 100.845C224.458 100.748 224.463 100.595 224.56 100.504L224.818 100.259C228.872 96.4183 232.072 93.3845 234.078 92.5674C235.272 92.0803 236.9 91.6337 238.475 91.2025C240.433 90.6661 242.458 90.1105 243.225 89.5635C244.511 88.6452 247.868 82.3981 248.382 79.0122C248.854 75.8877 249.768 71.2921 251.427 67.1374C252.306 64.938 253.763 61.4932 255.217 58.4189C255.274 58.2983 255.42 58.2481 255.537 58.3041C255.658 58.361 255.71 58.5047 255.652 58.6253C254.204 61.689 252.752 65.1232 251.876 67.3158C250.232 71.4272 249.327 75.9842 248.858 79.0826C248.354 82.4174 245.01 88.8796 243.505 89.9552C242.668 90.5533 240.693 91.0954 238.602 91.6674C237.042 92.0948 235.428 92.5375 234.26 93.0141C232.339 93.7974 229.167 96.8032 225.151 100.609L224.892 100.854C224.844 100.898 224.784 100.92 224.726 100.92Z" fill="#2C160B"/>
<path d="M218.148 97.519C218.088 97.519 218.029 97.4978 217.983 97.4544C217.885 97.3627 217.88 97.2103 217.972 97.1129C220.581 94.3289 223.264 92.2588 225.946 90.9575L227.083 90.4076C231.173 88.432 235.036 86.5673 238.253 83.7168C241.408 80.9232 243.864 76.0941 245.555 69.3638C245.741 68.6191 245.909 67.938 246.063 67.311C247.147 62.8929 247.595 61.0649 249.836 57.9095C250.455 57.0385 251.249 55.9629 252.074 54.8815C252.154 54.7754 252.306 54.7551 252.412 54.8362C252.518 54.9172 252.538 55.0687 252.457 55.1748C251.635 56.2513 250.844 57.3221 250.23 58.1893C248.041 61.2694 247.631 62.946 246.531 67.4268C246.377 68.0548 246.209 68.7358 246.022 69.4824C244.308 76.3093 241.801 81.2193 238.572 84.0795C235.305 86.9725 231.414 88.8516 227.293 90.8427L226.156 91.3915C223.527 92.6668 220.892 94.7032 218.322 97.4428C218.277 97.4939 218.212 97.519 218.148 97.519Z" fill="#2C160B"/>
<path d="M221.251 99.4049C221.199 99.4049 221.147 99.3875 221.102 99.3528C220.997 99.2708 220.98 99.1193 221.062 99.0142C222.436 97.2653 223.569 95.9707 226.663 94.0028C231.194 91.1195 233.433 90.1259 237.673 88.3249C241.666 86.63 243.419 83.7264 245.261 78.9611C246.352 76.1385 247.195 72.7931 248.01 69.5577C248.478 67.6978 248.921 65.9412 249.397 64.3264C250.006 62.2649 251.468 59.397 253.514 56.2513C253.587 56.1394 253.735 56.1095 253.848 56.1809C253.959 56.2532 253.991 56.4028 253.919 56.5147C251.897 59.6227 250.457 62.4453 249.861 64.4634C249.387 66.0695 248.946 67.8203 248.478 69.6763C247.659 72.9253 246.812 76.2851 245.711 79.1347C244.118 83.2595 242.427 86.8316 237.861 88.7696C233.646 90.559 231.42 91.5469 226.921 94.4099C223.892 96.3363 222.785 97.602 221.441 99.3123C221.394 99.3721 221.322 99.4049 221.251 99.4049Z" fill="#2C160B"/>
<path d="M242.484 101.387C242.462 101.387 242.438 101.384 242.415 101.377C242.288 101.339 242.215 101.205 242.253 101.077C242.37 100.68 242.47 100.294 242.568 99.9181C242.911 98.5955 243.236 97.3454 244.182 96.1058C245.082 94.9251 246.246 94.2006 247.372 93.5003C248.829 92.5935 250.206 91.7369 250.923 89.9725C251.406 88.7812 252.026 86.522 252.744 83.9068C253.976 79.4174 255.509 73.8301 257.295 70.1017C258.042 68.5371 258.705 66.9724 259.31 65.5139C259.36 65.3904 259.503 65.3325 259.625 65.3836C259.748 65.4348 259.806 65.5756 259.755 65.6991C259.148 67.1644 258.484 68.7358 257.73 70.3111C255.964 74.0009 254.437 79.564 253.209 84.0351C252.487 86.6657 251.863 88.9375 251.369 90.1549C250.594 92.0649 249.086 93.0035 247.627 93.9122C246.538 94.5894 245.413 95.2907 244.567 96.4C243.679 97.5634 243.381 98.7113 243.036 100.042C242.936 100.424 242.835 100.813 242.716 101.216C242.684 101.32 242.589 101.387 242.484 101.387Z" fill="#2C160B"/>
<path d="M244.136 100.933C244.116 100.933 244.097 100.93 244.076 100.925C243.947 100.892 243.87 100.76 243.903 100.631C244.255 99.264 244.616 98.2762 246.356 97.0405C247.44 96.2707 248.498 95.7826 249.431 95.3524C251.224 94.5257 252.639 93.8726 253.34 91.706C253.64 90.7819 254.011 89.1401 254.484 87.0612C255.722 81.6081 257.592 73.3651 260.193 69.6127C260.268 69.5027 260.418 69.4776 260.529 69.5519C260.638 69.6281 260.666 69.7776 260.588 69.8876C258.041 73.5629 256.184 81.7508 254.954 87.1683C254.48 89.2587 254.105 90.9102 253.8 91.8546C253.034 94.2218 251.458 94.9482 249.634 95.7903C248.72 96.2129 247.684 96.6904 246.636 97.4341C245.026 98.5772 244.706 99.4493 244.371 100.751C244.342 100.86 244.244 100.933 244.136 100.933Z" fill="#2C160B"/>
<path d="M255.995 91.4157C255.974 91.4157 255.953 91.4128 255.933 91.407C255.804 91.3723 255.727 91.2401 255.762 91.1118C255.941 90.4481 256.191 89.2201 256.507 87.6651C257.46 82.9894 258.9 75.9244 260.721 72.3445C260.781 72.2249 260.927 72.1796 261.046 72.2394C261.164 72.2992 261.212 72.4449 261.151 72.5635C259.36 76.0845 257.87 83.3956 256.98 87.7625C256.661 89.3243 256.409 90.5591 256.227 91.2372C256.198 91.3452 256.102 91.4157 255.995 91.4157Z" fill="#2C160B"/>
<path d="M207.115 78.1556C207.074 78.1556 207.033 78.145 206.995 78.1238C206.88 78.0582 206.839 77.9106 206.906 77.7948C208.777 74.5227 209.674 71.8535 210.623 69.0271C210.873 68.2853 211.127 67.5281 211.406 66.7399C213.246 61.527 216.633 55.8027 220.052 54.7667C221.225 54.4108 222.593 54.2439 224.041 54.0654C226.753 53.7326 229.558 53.3873 231.488 51.7811C232.514 50.9255 233.447 50.0303 234.526 48.9933C234.838 48.6933 235.159 48.3856 235.495 48.0672C235.591 47.9756 235.744 47.9794 235.836 48.0759C235.928 48.1724 235.924 48.3248 235.827 48.4174C235.492 48.7357 235.172 49.0425 234.861 49.3415C233.775 50.3853 232.836 51.2863 231.797 52.1525C229.759 53.8503 226.883 54.2034 224.1 54.5448C222.674 54.7204 221.326 54.8863 220.194 55.2288C216.936 56.2156 213.662 61.8019 211.862 66.901C211.584 67.6863 211.331 68.4416 211.083 69.1815C210.126 72.031 209.221 74.7224 207.325 78.035C207.28 78.1122 207.198 78.1556 207.115 78.1556Z" fill="#2C160B"/>
<path d="M218.402 53.2175C218.284 53.2175 218.18 53.1307 218.164 53.0091C218.146 52.877 218.238 52.7554 218.369 52.7371L219.252 52.6165C222.77 52.139 227.59 51.4859 229.774 49.7554C230.533 49.1534 230.813 48.9103 231.608 48.0749C231.701 47.9775 231.853 47.9756 231.95 48.0663C232.046 48.1579 232.05 48.3103 231.959 48.4077C231.141 49.2653 230.854 49.5161 230.074 50.1335C227.785 51.9461 222.892 52.6098 219.318 53.095L218.436 53.2156C218.425 53.2165 218.414 53.2175 218.402 53.2175Z" fill="#2C160B"/>
<path d="M207.049 72.4371C207.014 72.4371 206.978 72.4294 206.944 72.413C206.825 72.3552 206.774 72.2114 206.832 72.0908C208.944 67.7239 211.467 62.0122 212.215 59.0787C212.248 58.9494 212.382 58.8713 212.508 58.9041C212.638 58.9369 212.716 59.0681 212.683 59.1973C211.927 62.1656 209.39 67.912 207.267 72.3002C207.226 72.388 207.139 72.4371 207.049 72.4371Z" fill="#2C160B"/>
<path d="M427.513 70.1024C427.272 70.1024 427.144 70.002 427.079 69.9162C426.978 69.7831 426.958 69.5998 427.021 69.3731L427.067 69.2091C427.363 68.1354 427.498 67.6454 429.025 66.7299C429.437 66.482 429.874 66.3508 430.287 66.3508C430.86 66.3508 431.32 66.6152 431.458 67.0232C431.527 67.2287 431.603 67.7737 430.811 68.3785C429.903 69.0721 428.275 70.1024 427.513 70.1024ZM427.472 69.6191C427.48 69.6191 427.494 69.62 427.513 69.62C427.995 69.62 429.344 68.8908 430.519 67.9946C430.897 67.7062 431.078 67.4013 431.001 67.1775C430.932 66.9721 430.644 66.8332 430.287 66.8332C430.061 66.8332 429.7 66.8872 429.274 67.1428C427.913 67.9589 427.817 68.3062 427.532 69.3364L427.486 69.5023C427.469 69.5631 427.467 69.6007 427.467 69.6191C427.469 69.6191 427.47 69.6191 427.472 69.6191Z" fill="#2C160B"/>
<path d="M424.34 72.2892C424.029 72.2892 423.808 72.1976 423.684 72.0172C423.546 71.8156 423.55 71.5378 423.694 71.1693C424.383 69.4117 426.157 67.1843 426.231 67.0898C427.547 65.6958 429.778 64.2701 431.259 64.2701C432.198 64.2701 433.333 64.6656 433.686 65.42C433.825 65.718 433.892 66.1897 433.425 66.7473C433.303 66.893 433.169 67.0579 433.024 67.2364C431.978 68.5281 430.396 70.4795 428.535 71.0323C428.074 71.1693 427.541 71.3612 427.026 71.5464C425.969 71.9284 424.969 72.2892 424.34 72.2892ZM431.26 64.7524C429.928 64.7524 427.802 66.1299 426.596 67.4062C426.591 67.4129 424.805 69.6567 424.144 71.3448C424.054 71.5744 424.055 71.7037 424.083 71.7452C424.103 71.7751 424.182 71.8069 424.34 71.8069C424.884 71.8069 425.891 71.4442 426.864 71.093C427.386 70.9049 427.924 70.711 428.399 70.5702C430.118 70.0609 431.642 68.1788 432.651 66.9325C432.797 66.7521 432.933 66.5852 433.056 66.4367C433.304 66.1415 433.367 65.8743 433.249 65.6235C433.025 65.1431 432.132 64.7524 431.26 64.7524Z" fill="#2C160B"/>
<path d="M421.933 75.5603C421.547 75.5603 421.257 75.4398 421.07 75.2034C420.808 74.8706 420.77 74.3304 420.956 73.551L420.973 73.4835C421.8 70.0233 422.143 68.5917 425.207 66.0692C428.808 63.1038 430.753 62.1517 433.534 61.9974C434.606 61.9347 435.388 62.3784 435.745 63.2177C436.399 64.7534 435.425 67.2017 433.263 69.4541C429.92 72.9375 429.228 73.1362 427.382 73.6658C427.199 73.7188 427.003 73.7748 426.793 73.8375C426.255 73.9986 425.617 74.2803 424.94 74.5793C423.846 75.0607 422.714 75.5603 421.933 75.5603ZM433.72 62.4739C433.668 62.4739 433.615 62.4749 433.561 62.4778C430.901 62.6254 429.02 63.5514 425.512 66.4396C422.574 68.8589 422.265 70.1487 421.442 73.5944L421.425 73.6619C421.241 74.4307 421.336 74.7626 421.448 74.9044C421.54 75.0211 421.698 75.078 421.932 75.078C422.613 75.078 423.697 74.5996 424.746 74.1375C425.435 73.8327 426.087 73.5452 426.654 73.3754C426.867 73.3117 427.064 73.2548 427.249 73.2018C429.004 72.6982 429.661 72.5092 432.916 69.1194C435.381 66.5524 435.742 64.4379 435.303 63.4067C435.042 62.7961 434.495 62.4739 433.72 62.4739Z" fill="#2C160B"/>
<path d="M418.326 80.289C418.066 80.289 417.858 80.2013 417.705 80.0296C417.416 79.7054 417.343 79.0948 417.463 78.0482C417.956 73.824 420.32 69.3461 422.445 66.782C424.369 64.4592 426.759 62.0803 431.174 60.4192C433.291 59.6224 435.682 58.8082 437.357 58.8082C438.279 58.8082 438.923 59.061 439.273 59.5587C439.695 60.1568 439.68 61.0588 439.229 62.3138C437.262 67.7891 432.984 74.3478 426.874 76.3359C424.528 77.099 422.556 78.2257 421.117 79.0485C419.859 79.7691 418.95 80.289 418.326 80.289ZM437.358 59.2906C435.76 59.2906 433.422 60.0893 431.345 60.8707C427.036 62.4922 424.7 64.818 422.817 67.0898C420.738 69.5988 418.425 73.9773 417.945 78.1041C417.844 78.9646 417.885 79.5038 418.066 79.7074C418.107 79.7537 418.172 79.8058 418.327 79.8058C418.822 79.8058 419.729 79.2868 420.879 78.6299C422.337 77.7964 424.334 76.6552 426.727 75.8767C432.677 73.9407 436.937 67.2721 438.777 62.1508C439.165 61.0684 439.2 60.2899 438.881 59.8356C438.625 59.4748 438.114 59.2906 437.358 59.2906Z" fill="#2C160B"/>
<path d="M412.546 87.8837C412.487 87.8837 412.428 87.8625 412.382 87.8201C412.284 87.7294 412.278 87.577 412.368 87.4786C414.568 85.1017 417.142 83.1666 420.022 81.7273C422.138 80.6691 423.901 79.88 425.458 79.1836C428.432 77.8533 430.583 76.8925 432.709 75.133C436.023 72.3876 439.791 67.765 440.736 63.6228C441.008 62.4305 441.191 61.4678 441.351 60.6179C441.77 58.4098 441.999 57.1944 443.13 55.7243C443.711 54.9699 444.567 53.6541 445.476 52.2602C445.836 51.7065 446.205 51.1412 446.568 50.5923C446.643 50.4814 446.793 50.4515 446.903 50.5238C447.014 50.5972 447.044 50.7467 446.971 50.8576C446.607 51.4065 446.24 51.9708 445.88 52.5236C444.968 53.9252 444.104 55.2487 443.513 56.0185C442.453 57.3979 442.23 58.5729 441.827 60.7076C441.665 61.5614 441.481 62.5299 441.207 63.7308C440.171 68.2734 436.148 72.9133 433.017 75.5044C430.84 77.3064 428.666 78.2787 425.656 79.6244C424.105 80.318 422.346 81.1042 420.239 82.1585C417.411 83.5717 414.883 85.4721 412.723 87.8056C412.675 87.8577 412.611 87.8837 412.546 87.8837Z" fill="#2C160B"/>
<path d="M411.789 85.7084C411.738 85.7084 411.688 85.692 411.644 85.6592C411.538 85.5792 411.516 85.4277 411.597 85.3216C411.991 84.8007 412.274 84.4293 412.487 84.1515C413.124 83.3161 413.124 83.3161 413.593 82.5666L414.116 81.737C415.193 80.0373 415.88 77.5456 416.546 75.1369C417.051 73.3098 417.527 71.5841 418.144 70.3165C419.723 67.0772 422.032 63.0286 425.908 60.4443C427.94 59.0899 429.932 58.707 431.857 58.3375C433.766 57.9709 435.57 57.6246 437.429 56.4014C439.833 54.8194 442.046 52.0499 443.823 49.8245C443.908 49.7212 444.06 49.7039 444.163 49.7868C444.266 49.8698 444.284 50.0222 444.201 50.1264C442.402 52.3779 440.162 55.1812 437.694 56.8056C435.755 58.0809 433.82 58.4532 431.948 58.8131C430.069 59.1738 428.127 59.5472 426.175 60.8475C422.396 63.3672 420.13 67.3454 418.578 70.5297C417.979 71.7567 417.509 73.4622 417.01 75.2671C416.336 77.7105 415.637 80.236 414.523 81.9974L414.001 82.8251C413.52 83.593 413.52 83.593 412.869 84.4457C412.657 84.7245 412.374 85.0949 411.98 85.6139C411.934 85.6756 411.863 85.7084 411.789 85.7084Z" fill="#2C160B"/>
<path d="M413.817 90.4893C413.765 90.4893 413.712 90.4719 413.668 90.4372C413.563 90.3552 413.545 90.2037 413.627 90.0986C415.472 87.7506 417.192 86.0683 418.739 85.0969C420.346 84.0878 423.061 82.8955 425.937 81.6318C430.918 79.444 436.563 76.9649 438.383 74.6439C441.662 70.4573 443.54 61.7331 444.194 58.1754C444.602 55.9683 445.893 53.7081 448.141 51.2647C448.232 51.1682 448.384 51.1615 448.482 51.2502C448.58 51.3409 448.586 51.4933 448.496 51.5917C446.311 53.9657 445.06 56.1487 444.669 58.2632C443.848 62.7247 441.988 70.8239 438.763 74.942C436.868 77.3584 431.164 79.8646 426.131 82.0746C423.272 83.3306 420.572 84.5161 418.994 85.5068C417.495 86.4493 415.817 88.094 414.005 90.3966C413.958 90.4574 413.887 90.4893 413.817 90.4893Z" fill="#2C160B"/>
<path d="M415.222 92.734C415.169 92.734 415.117 92.7166 415.073 92.6829C414.968 92.6009 414.95 92.4494 415.032 92.3433C417.004 89.8217 418.61 88.1471 419.943 87.2259C421.415 86.2053 423.859 85.2068 426.688 84.0493C431.455 82.0997 436.858 79.8907 439.145 76.9137C442.685 72.3066 444.272 65.8106 445.714 58.9992C446.176 56.8056 447.543 54.4394 449.774 51.967C449.865 51.8686 450.017 51.8608 450.116 51.9496C450.214 52.0383 450.222 52.1908 450.133 52.2901C447.959 54.6988 446.632 56.9889 446.186 59.0986C444.733 65.9669 443.13 72.5198 439.529 77.207C437.162 80.2871 431.695 82.5232 426.872 84.4959C424.185 85.5946 421.647 86.6326 420.217 87.6214C418.927 88.5156 417.355 90.1574 415.413 92.6404C415.363 92.7022 415.293 92.734 415.222 92.734Z" fill="#2C160B"/>
<path d="M410.865 82.9795C410.814 82.9795 410.763 82.9631 410.72 82.9303C410.613 82.8492 410.593 82.6987 410.674 82.5917L410.925 82.2618C413.25 79.2086 413.341 79.09 414.492 75.1291C414.636 74.6362 414.772 74.1606 414.904 73.7005C416.27 68.9274 417.173 65.774 420.899 61.4977C425.076 56.7063 430.995 56.0416 433.521 55.7571C435.374 55.5497 439.864 50.6975 441.338 49.1029C441.43 49.0055 441.583 48.9997 441.68 49.0894C441.778 49.1801 441.783 49.3325 441.693 49.4309C437.484 53.9802 434.98 56.0792 433.575 56.2365C431.104 56.5143 425.316 57.1645 421.263 61.8141C417.607 66.0103 416.717 69.1223 415.368 73.8326C415.236 74.2937 415.1 74.7703 414.956 75.2632C413.778 79.3099 413.686 79.4315 411.309 82.5531L411.058 82.883C411.01 82.9467 410.938 82.9795 410.865 82.9795Z" fill="#2C160B"/>
<path d="M416.739 94.4308C416.688 94.4308 416.637 94.4144 416.592 94.3807C416.486 94.3006 416.466 94.1491 416.547 94.043C418.308 91.7365 419.837 90.1806 421.359 89.1455C423.409 87.7516 426.057 86.7802 428.861 85.7509C432.881 84.2769 437.039 82.7518 439.142 79.9032C439.457 79.4768 439.764 79.0659 440.06 78.6675C443.157 74.5185 445.202 71.777 446.114 65.6621C446.596 62.4382 448.839 58.0018 452.266 53.4892C452.348 53.3831 452.499 53.3638 452.605 53.4429C452.71 53.5229 452.731 53.6754 452.651 53.7815C449.271 58.2314 447.062 62.5877 446.591 65.7344C445.661 71.9699 443.587 74.75 440.448 78.9569C440.151 79.3543 439.845 79.7643 439.531 80.1907C437.341 83.155 433.115 84.7052 429.027 86.2043C426.252 87.223 423.631 88.1837 421.631 89.5449C420.154 90.55 418.661 92.0722 416.931 94.3353C416.883 94.398 416.811 94.4308 416.739 94.4308Z" fill="#2C160B"/>
<path d="M435.123 103.576C435.062 103.576 435.001 103.553 434.953 103.506C434.859 103.413 434.858 103.26 434.952 103.165C436.506 101.591 442.498 96.2164 444.13 96.799C444.277 96.8521 444.53 97.0035 444.566 97.4241C444.698 98.9261 444.21 101.035 443.325 102.796C443.265 102.915 443.119 102.96 443.001 102.903C442.882 102.844 442.834 102.698 442.894 102.579C443.742 100.892 444.21 98.8846 444.086 97.4646C444.07 97.2881 444 97.263 443.966 97.2505C442.949 96.8897 437.992 100.77 435.294 103.501C435.248 103.552 435.186 103.576 435.123 103.576Z" fill="#2C160B"/>
<path d="M440.789 103.433C440.754 103.433 440.719 103.425 440.685 103.41C440.565 103.353 440.514 103.209 440.572 103.089C440.971 102.247 440.975 101.786 440.846 101.636C440.737 101.508 440.465 101.574 440.356 101.607C439.584 101.838 439.068 102.185 437.727 103.37C437.627 103.458 437.474 103.449 437.386 103.35C437.298 103.25 437.307 103.097 437.407 103.008C438.696 101.867 439.315 101.415 440.216 101.145C440.797 100.971 441.089 101.18 441.209 101.321C441.518 101.681 441.447 102.364 441.005 103.296C440.965 103.382 440.879 103.433 440.789 103.433Z" fill="#2C160B"/>
<path d="M433.541 103.317C433.481 103.317 433.422 103.296 433.375 103.252C433.279 103.159 433.275 103.007 433.367 102.91C436.897 99.1971 439.245 96.8588 442.077 95.6906C442.816 95.3877 443.611 95.109 444.381 94.8417C447.526 93.7469 450.778 92.6134 452.195 89.1532C452.938 87.3339 453.878 83.8563 454.872 80.1723C456.321 74.8041 457.964 68.7181 459.578 65.4904C459.949 64.7486 460.397 63.9074 460.947 62.9186C461.012 62.8029 461.16 62.7594 461.275 62.825C461.392 62.8897 461.433 63.0363 461.369 63.153C460.823 64.136 460.379 64.9714 460.01 65.7055C458.418 68.8908 456.782 74.9507 455.337 80.2977C454.34 83.9952 453.397 87.4873 452.641 89.3346C451.141 92.9973 447.786 94.1665 444.54 95.2971C443.742 95.5749 442.988 95.8373 442.264 96.1363C439.518 97.2678 437.204 99.5753 433.718 103.241C433.669 103.292 433.605 103.317 433.541 103.317Z" fill="#2C160B"/>
<path d="M430.845 102.808C430.785 102.808 430.724 102.786 430.678 102.741C430.582 102.649 430.579 102.496 430.671 102.4C434.223 98.7003 437.037 96.008 439.225 94.8909C440.23 94.3778 441.395 94.0671 442.629 93.7401C444.578 93.2231 446.592 92.6877 448.111 91.2909C450.625 88.9757 452.716 82.6669 453.593 77.7839C454.303 73.8404 456.86 66.0161 459.533 60.6527C459.593 60.533 459.74 60.4848 459.856 60.5446C459.976 60.6044 460.024 60.7482 459.964 60.8678C457.309 66.1946 454.771 73.959 454.068 77.8687C453.177 82.829 451.034 89.2555 448.437 91.6449C446.832 93.1227 444.759 93.6745 442.754 94.206C441.545 94.5273 440.403 94.8302 439.443 95.3202C437.316 96.4074 434.537 99.0698 431.019 102.734C430.971 102.783 430.908 102.808 430.845 102.808Z" fill="#2C160B"/>
<path d="M418.701 96.5009C418.649 96.5009 418.596 96.4836 418.552 96.4488C418.447 96.3669 418.429 96.2154 418.511 96.1103C420.694 93.3398 422.445 91.6034 423.714 90.9484C424.693 90.4449 425.867 89.9162 427.111 89.3558C430.429 87.8606 434.56 85.9998 438.506 83.0875C443.641 79.2984 445.144 75.0809 446.598 71.0014L446.833 70.3406C447.196 69.3335 447.533 68.312 447.89 67.2306C449.007 63.8485 450.162 60.3507 452.063 57.4799C452.557 56.7323 453.225 55.8217 454.048 54.776C454.13 54.6709 454.281 54.6535 454.386 54.7355C454.491 54.8175 454.51 54.9699 454.427 55.0741C453.613 56.1101 452.954 57.0092 452.467 57.7471C450.601 60.5639 449.456 64.0309 448.349 67.383C448.006 68.42 447.652 69.4917 447.287 70.5046L447.052 71.1644C445.644 75.1185 444.047 79.6003 438.793 83.4763C434.804 86.4204 430.648 88.2918 427.309 89.7966C426.071 90.3542 424.903 90.8809 423.935 91.3796C422.728 92.0028 421.03 93.6938 418.89 96.4093C418.843 96.4691 418.772 96.5009 418.701 96.5009Z" fill="#2C160B"/>
<path d="M427.917 101.92C427.854 101.92 427.79 101.895 427.742 101.845C427.65 101.748 427.655 101.595 427.751 101.504L428.01 101.259C432.063 97.4183 435.264 94.3845 437.27 93.5674C438.464 93.0803 440.092 92.6337 441.666 92.2025C443.625 91.6661 445.649 91.1105 446.416 90.5635C447.702 89.6452 451.06 83.3981 451.573 80.0122C452.046 76.8877 452.96 72.2921 454.619 68.1374C455.498 65.938 456.955 62.4932 458.409 59.4189C458.466 59.2983 458.611 59.2481 458.729 59.3041C458.85 59.361 458.902 59.5047 458.844 59.6253C457.396 62.689 455.943 66.1232 455.067 68.3158C453.424 72.4272 452.519 76.9842 452.05 80.0826C451.545 83.4174 448.202 89.8796 446.697 90.9552C445.86 91.5533 443.885 92.0954 441.794 92.6674C440.234 93.0948 438.62 93.5375 437.452 94.0141C435.53 94.7974 432.359 97.8032 428.343 101.609L428.084 101.854C428.036 101.898 427.976 101.92 427.917 101.92Z" fill="#2C160B"/>
<path d="M421.339 98.519C421.28 98.519 421.221 98.4978 421.174 98.4544C421.077 98.3627 421.072 98.2103 421.164 98.1129C423.773 95.3289 426.456 93.2588 429.138 91.9575L430.275 91.4076C434.365 89.432 438.227 87.5673 441.445 84.7168C444.6 81.9232 447.056 77.0941 448.747 70.3638C448.933 69.6191 449.101 68.938 449.254 68.311C450.339 63.8929 450.787 62.0649 453.028 58.9095C453.646 58.0385 454.44 56.9629 455.266 55.8815C455.346 55.7754 455.498 55.7551 455.604 55.8362C455.71 55.9172 455.73 56.0687 455.649 56.1748C454.827 57.2513 454.036 58.3221 453.422 59.1893C451.233 62.2694 450.823 63.946 449.722 68.4268C449.569 69.0548 449.401 69.7358 449.214 70.4824C447.5 77.3093 444.993 82.2193 441.764 85.0795C438.497 87.9725 434.605 89.8516 430.484 91.8427L429.348 92.3915C426.719 93.6668 424.084 95.7032 421.514 98.4428C421.469 98.4939 421.404 98.519 421.339 98.519Z" fill="#2C160B"/>
<path d="M424.443 100.405C424.391 100.405 424.338 100.388 424.294 100.353C424.189 100.271 424.172 100.119 424.254 100.014C425.628 98.2653 426.761 96.9707 429.854 95.0028C434.385 92.1195 436.625 91.1259 440.865 89.3249C444.858 87.63 446.611 84.7264 448.453 79.9611C449.544 77.1385 450.387 73.7931 451.202 70.5577C451.67 68.6978 452.113 66.9412 452.589 65.3264C453.198 63.2649 454.659 60.397 456.705 57.2513C456.779 57.1394 456.927 57.1095 457.04 57.1809C457.151 57.2532 457.183 57.4028 457.11 57.5147C455.089 60.6227 453.648 63.4453 453.053 65.4634C452.579 67.0695 452.138 68.8203 451.67 70.6763C450.851 73.9253 450.004 77.2851 448.903 80.1347C447.31 84.2595 445.619 87.8316 441.053 89.7696C436.837 91.559 434.612 92.5469 430.113 95.4099C427.084 97.3363 425.976 98.602 424.633 100.312C424.585 100.372 424.514 100.405 424.443 100.405Z" fill="#2C160B"/>
<path d="M445.676 102.387C445.653 102.387 445.63 102.384 445.607 102.377C445.48 102.339 445.406 102.205 445.445 102.077C445.562 101.68 445.662 101.294 445.759 100.918C446.103 99.5955 446.428 98.3454 447.373 97.1058C448.273 95.9251 449.438 95.2006 450.563 94.5003C452.021 93.5935 453.398 92.7369 454.114 90.9725C454.598 89.7812 455.218 87.522 455.936 84.9068C457.167 80.4174 458.701 74.8301 460.487 71.1017C461.233 69.5371 461.897 67.9724 462.502 66.5139C462.552 66.3904 462.695 66.3325 462.816 66.3836C462.94 66.4348 462.998 66.5756 462.947 66.6991C462.34 68.1644 461.675 69.7358 460.922 71.3111C459.156 75.0009 457.629 80.564 456.401 85.0351C455.679 87.6657 455.055 89.9375 454.561 91.1549C453.785 93.0649 452.278 94.0035 450.819 94.9122C449.73 95.5894 448.604 96.2907 447.758 97.4C446.871 98.5634 446.573 99.7113 446.227 101.042C446.128 101.424 446.027 101.813 445.908 102.216C445.876 102.32 445.781 102.387 445.676 102.387Z" fill="#2C160B"/>
<path d="M447.328 101.933C447.308 101.933 447.288 101.93 447.268 101.925C447.139 101.892 447.062 101.76 447.095 101.631C447.447 100.264 447.807 99.2762 449.548 98.0405C450.632 97.2707 451.69 96.7826 452.623 96.3524C454.415 95.5257 455.83 94.8726 456.532 92.706C456.832 91.7819 457.203 90.1401 457.676 88.0612C458.913 82.6081 460.784 74.3651 463.385 70.6127C463.46 70.5027 463.609 70.4776 463.72 70.5519C463.829 70.6281 463.857 70.7776 463.78 70.8876C461.232 74.5629 459.375 82.7508 458.146 88.1683C457.672 90.2587 457.297 91.9102 456.992 92.8546C456.226 95.2218 454.65 95.9482 452.826 96.7903C451.912 97.2129 450.876 97.6904 449.827 98.4341C448.217 99.5772 447.898 100.449 447.562 101.751C447.533 101.86 447.436 101.933 447.328 101.933Z" fill="#2C160B"/>
<path d="M459.186 92.4157C459.166 92.4157 459.145 92.4128 459.125 92.407C458.995 92.3723 458.919 92.2401 458.954 92.1118C459.132 91.4481 459.382 90.2201 459.699 88.6651C460.652 83.9894 462.092 76.9244 463.913 73.3445C463.973 73.2249 464.119 73.1796 464.237 73.2394C464.356 73.2992 464.403 73.4449 464.342 73.5635C462.552 77.0845 461.062 84.3956 460.171 88.7625C459.853 90.3243 459.601 91.5591 459.419 92.2372C459.39 92.3452 459.293 92.4157 459.186 92.4157Z" fill="#2C160B"/>
<path d="M410.307 79.1556C410.266 79.1556 410.225 79.145 410.187 79.1238C410.071 79.0582 410.031 78.9106 410.097 78.7948C411.969 75.5227 412.866 72.8535 413.815 70.0271C414.065 69.2853 414.319 68.5281 414.597 67.7399C416.438 62.527 419.825 56.8027 423.244 55.7667C424.417 55.4108 425.784 55.2439 427.232 55.0654C429.945 54.7326 432.75 54.3873 434.679 52.7811C435.706 51.9255 436.639 51.0303 437.718 49.9933C438.03 49.6933 438.351 49.3856 438.687 49.0672C438.783 48.9756 438.936 48.9794 439.028 49.0759C439.12 49.1724 439.116 49.3248 439.018 49.4174C438.684 49.7357 438.363 50.0425 438.053 50.3415C436.967 51.3853 436.028 52.2863 434.989 53.1525C432.951 54.8503 430.074 55.2034 427.292 55.5448C425.866 55.7204 424.518 55.8863 423.385 56.2288C420.128 57.2156 416.854 62.8019 415.054 67.901C414.776 68.6863 414.523 69.4416 414.274 70.1815C413.317 73.031 412.413 75.7224 410.517 79.035C410.472 79.1122 410.39 79.1556 410.307 79.1556Z" fill="#2C160B"/>
<path d="M421.594 54.2175C421.475 54.2175 421.372 54.1307 421.356 54.0091C421.337 53.877 421.43 53.7554 421.561 53.7371L422.444 53.6165C425.962 53.139 430.781 52.4859 432.965 50.7554C433.724 50.1534 434.004 49.9103 434.8 49.0749C434.893 48.9775 435.045 48.9756 435.142 49.0663C435.238 49.1579 435.242 49.3103 435.15 49.4077C434.333 50.2653 434.046 50.5161 433.265 51.1335C430.977 52.9461 426.084 53.6098 422.509 54.095L421.628 54.2156C421.617 54.2165 421.606 54.2175 421.594 54.2175Z" fill="#2C160B"/>
<path d="M410.241 73.4371C410.205 73.4371 410.17 73.4294 410.136 73.413C410.016 73.3552 409.966 73.2114 410.024 73.0908C412.136 68.7239 414.659 63.0122 415.407 60.0787C415.44 59.9494 415.574 59.8713 415.7 59.9041C415.829 59.9369 415.907 60.0681 415.875 60.1973C415.118 63.1656 412.581 68.912 410.459 73.3002C410.418 73.388 410.331 73.4371 410.241 73.4371Z" fill="#2C160B"/>
</svg>
