<?xml version="1.0" encoding="UTF-8"?>
<svg width="1178px" height="179px" viewBox="0 0 1178 179" version="1.1" xmlns="http://www.w3.org/2000/svg" xmlns:xlink="http://www.w3.org/1999/xlink">
    <title>Group 3</title>
    <defs>
        <linearGradient x1="0%" y1="0%" x2="99.5753148%" y2="99.5753148%" id="linearGradient-1">
            <stop stop-color="#17CF1E" offset="0%"></stop>
            <stop stop-color="#11AC19" offset="100%"></stop>
        </linearGradient>
    </defs>
    <g id="Woodwork" stroke="none" stroke-width="1" fill="none" fill-rule="evenodd">
        <g id="Group-3" transform="translate(2.000000, 0.500000)">
            <path d="M321.972,156.726 L351.001,66.818 C351.365,65.6653333 351.744167,64.4216667 352.1385,63.087 C352.532833,61.7523333 352.912,60.3266667 353.276,58.81 C353.64,60.3266667 354.019167,61.7523333 354.4135,63.087 C354.807833,64.4216667 355.187,65.6653333 355.551,66.818 L384.307,156.726 L406.42,156.726 L447.279,25.14 L428.078,25.14 C426.015333,25.14 424.256,25.686 422.8,26.778 C421.344,27.87 420.403667,29.1743333 419.979,30.691 L397.593,109.406 C397.107667,111.286667 396.6375,113.319 396.1825,115.503 C395.7275,117.687 395.287667,119.962 394.863,122.328 C393.892333,117.596 392.739667,113.288667 391.405,109.406 L365.743,30.691 C365.197,28.9923333 364.226333,27.6425 362.831,26.6415 C361.435667,25.6405 359.676333,25.14 357.553,25.14 L350.364,25.14 C348.301333,25.14 346.557167,25.7163333 345.1315,26.869 C343.705833,28.0216667 342.750333,29.2956667 342.265,30.691 L316.421,109.406 C315.753667,111.347333 315.131833,113.4555 314.5555,115.7305 C313.979167,118.0055 313.448333,120.417 312.963,122.965 C312.538333,120.417 312.0985,118.0055 311.6435,115.7305 C311.1885,113.4555 310.688,111.347333 310.142,109.406 L287.756,30.691 C287.270667,28.9923333 286.315167,27.6425 284.8895,26.6415 C283.463833,25.6405 281.689333,25.14 279.566,25.14 L259,25.14 L299.859,156.726 L321.972,156.726 Z M496.51,158.091 C503.486667,158.091 509.811167,156.968667 515.4835,154.724 C521.155833,152.479333 525.994,149.264 529.998,145.078 C534.002,140.892 537.096,135.826333 539.28,129.881 C541.464,123.935667 542.556,117.262333 542.556,109.861 C542.556,102.520333 541.464,95.8773333 539.28,89.932 C537.096,83.9866667 534.002,78.9513333 529.998,74.826 C525.994,70.7006667 521.155833,67.5156667 515.4835,65.271 C509.811167,63.0263333 503.486667,61.904 496.51,61.904 C489.533333,61.904 483.193667,63.0263333 477.491,65.271 C471.788333,67.5156667 466.919833,70.7006667 462.8855,74.826 C458.851167,78.9513333 455.726833,83.9866667 453.5125,89.932 C451.298167,95.8773333 450.191,102.520333 450.191,109.861 C450.191,117.262333 451.298167,123.935667 453.5125,129.881 C455.726833,135.826333 458.851167,140.892 462.8855,145.078 C466.919833,149.264 471.788333,152.479333 477.491,154.724 C483.193667,156.968667 489.533333,158.091 496.51,158.091 Z M496.51,140.801 C488.623333,140.801 482.799333,138.177167 479.038,132.9295 C475.276667,127.681833 473.396,120.053 473.396,110.043 C473.396,100.033 475.276667,92.3738333 479.038,87.0655 C482.799333,81.7571667 488.623333,79.103 496.51,79.103 C504.275333,79.103 510.0235,81.742 513.7545,87.02 C517.4855,92.298 519.351,99.9723333 519.351,110.043 C519.351,120.113667 517.4855,127.757667 513.7545,132.975 C510.0235,138.192333 504.275333,140.801 496.51,140.801 Z M599.977,158.091 C606.953667,158.091 613.278167,156.968667 618.9505,154.724 C624.622833,152.479333 629.461,149.264 633.465,145.078 C637.469,140.892 640.563,135.826333 642.747,129.881 C644.931,123.935667 646.023,117.262333 646.023,109.861 C646.023,102.520333 644.931,95.8773333 642.747,89.932 C640.563,83.9866667 637.469,78.9513333 633.465,74.826 C629.461,70.7006667 624.622833,67.5156667 618.9505,65.271 C613.278167,63.0263333 606.953667,61.904 599.977,61.904 C593.000333,61.904 586.660667,63.0263333 580.958,65.271 C575.255333,67.5156667 570.386833,70.7006667 566.3525,74.826 C562.318167,78.9513333 559.193833,83.9866667 556.9795,89.932 C554.765167,95.8773333 553.658,102.520333 553.658,109.861 C553.658,117.262333 554.765167,123.935667 556.9795,129.881 C559.193833,135.826333 562.318167,140.892 566.3525,145.078 C570.386833,149.264 575.255333,152.479333 580.958,154.724 C586.660667,156.968667 593.000333,158.091 599.977,158.091 Z M599.977,140.801 C592.090333,140.801 586.266333,138.177167 582.505,132.9295 C578.743667,127.681833 576.863,120.053 576.863,110.043 C576.863,100.033 578.743667,92.3738333 582.505,87.0655 C586.266333,81.7571667 592.090333,79.103 599.977,79.103 C607.742333,79.103 613.4905,81.742 617.2215,87.02 C620.9525,92.298 622.818,99.9723333 622.818,110.043 C622.818,120.113667 620.9525,127.757667 617.2215,132.975 C613.4905,138.192333 607.742333,140.801 599.977,140.801 Z M691.705,158.091 C694.981,158.091 698.0295,157.742167 700.8505,157.0445 C703.6715,156.346833 706.3105,155.361 708.7675,154.087 C711.2245,152.813 713.514667,151.296333 715.638,149.537 C717.761333,147.777667 719.793667,145.806 721.735,143.622 L721.735,143.622 L723.555,152.631 C724.465,155.361 726.376,156.726 729.288,156.726 L729.288,156.726 L743.029,156.726 L743.029,21.5 L720.552,21.5 L720.552,70.822 C717.64,68.0313333 714.333667,65.8018333 710.633,64.1335 C706.932333,62.4651667 702.473333,61.631 697.256,61.631 C691.128667,61.631 685.608,62.8595 680.694,65.3165 C675.78,67.7735 671.563667,71.186 668.045,75.554 C664.526333,79.922 661.826667,85.0786667 659.946,91.024 C658.065333,96.9693333 657.125,103.4 657.125,110.316 C657.125,117.96 657.959167,124.754667 659.6275,130.7 C661.295833,136.645333 663.661833,141.635167 666.7255,145.6695 C669.789167,149.703833 673.444333,152.782667 677.691,154.906 C681.937667,157.029333 686.609,158.091 691.705,158.091 Z M699.349,140.255 C696.437,140.255 693.798,139.724167 691.432,138.6625 C689.066,137.600833 687.064,135.871833 685.426,133.4755 C683.788,131.079167 682.529167,127.985167 681.6495,124.1935 C680.769833,120.401833 680.33,115.776 680.33,110.316 C680.33,104.916667 680.845667,100.230167 681.877,96.2565 C682.908333,92.2828333 684.3795,89.0068333 686.2905,86.4285 C688.2015,83.8501667 690.537167,81.924 693.2975,80.65 C696.057833,79.376 699.136667,78.739 702.534,78.739 C705.992,78.739 709.2225,79.376 712.2255,80.65 C715.2285,81.924 718.004,84.108 720.552,87.202 L720.552,87.202 L720.552,129.062 C717.64,132.641333 714.546,135.401667 711.27,137.343 C707.994,139.284333 704.020333,140.255 699.349,140.255 Z M802.725,156.726 C805.151667,156.726 806.789667,155.391333 807.639,152.722 L807.639,152.722 L824.656,98.941 C825.202,97.121 825.687333,95.3161667 826.112,93.5265 C826.536667,91.7368333 826.931,89.932 827.295,88.112 C827.598333,89.8713333 827.9775,91.6458333 828.4325,93.4355 C828.8875,95.2251667 829.388,96.9996667 829.934,98.759 L829.934,98.759 L846.769,152.722 C847.618333,155.391333 849.013667,156.726 850.955,156.726 L850.955,156.726 L869.064,156.726 L898.639,63.36 L881.622,63.36 C880.105333,63.36 878.770667,63.7543333 877.618,64.543 C876.465333,65.3316667 875.737333,66.3326667 875.434,67.546 L875.434,67.546 L861.602,117.414 C860.813333,120.204667 860.161167,122.904333 859.6455,125.513 C859.129833,128.121667 858.659667,130.730333 858.235,133.339 C857.628333,130.851667 857.0065,128.3795 856.3695,125.9225 C855.7325,123.4655 855.019667,120.932667 854.231,118.324 L854.231,118.324 L838.943,67.364 C838.579,66.1506667 837.851,65.1496667 836.759,64.361 C835.667,63.5723333 834.302,63.178 832.664,63.178 L832.664,63.178 L822.745,63.178 C821.289,63.178 820.015,63.5723333 818.923,64.361 C817.831,65.1496667 817.103,66.1506667 816.739,67.364 L816.739,67.364 L801.269,117.414 C800.419667,120.144 799.615833,122.813333 798.8575,125.422 C798.099167,128.030667 797.386333,130.639333 796.719,133.248 C796.294333,130.639333 795.8545,128.030667 795.3995,125.422 C794.9445,122.813333 794.353,120.144 793.625,117.414 L793.625,117.414 L780.248,67.546 C779.944667,66.3326667 779.216667,65.3316667 778.064,64.543 C776.911333,63.7543333 775.485667,63.36 773.787,63.36 L773.787,63.36 L755.951,63.36 L785.526,156.726 L802.725,156.726 Z M951.146,158.091 C958.122667,158.091 964.447167,156.968667 970.1195,154.724 C975.791833,152.479333 980.63,149.264 984.634,145.078 C988.638,140.892 991.732,135.826333 993.916,129.881 C996.1,123.935667 997.192,117.262333 997.192,109.861 C997.192,102.520333 996.1,95.8773333 993.916,89.932 C991.732,83.9866667 988.638,78.9513333 984.634,74.826 C980.63,70.7006667 975.791833,67.5156667 970.1195,65.271 C964.447167,63.0263333 958.122667,61.904 951.146,61.904 C944.169333,61.904 937.829667,63.0263333 932.127,65.271 C926.424333,67.5156667 921.555833,70.7006667 917.5215,74.826 C913.487167,78.9513333 910.362833,83.9866667 908.1485,89.932 C905.934167,95.8773333 904.827,102.520333 904.827,109.861 C904.827,117.262333 905.934167,123.935667 908.1485,129.881 C910.362833,135.826333 913.487167,140.892 917.5215,145.078 C921.555833,149.264 926.424333,152.479333 932.127,154.724 C937.829667,156.968667 944.169333,158.091 951.146,158.091 Z M951.146,140.801 C943.259333,140.801 937.435333,138.177167 933.674,132.9295 C929.912667,127.681833 928.032,120.053 928.032,110.043 C928.032,100.033 929.912667,92.3738333 933.674,87.0655 C937.435333,81.7571667 943.259333,79.103 951.146,79.103 C958.911333,79.103 964.6595,81.742 968.3905,87.02 C972.1215,92.298 973.987,99.9723333 973.987,110.043 C973.987,120.113667 972.1215,127.757667 968.3905,132.975 C964.6595,138.192333 958.911333,140.801 951.146,140.801 Z M1037.232,156.726 L1037.232,98.577 C1039.53733,93.6023333 1042.35833,89.8258333 1045.695,87.2475 C1049.03167,84.6691667 1053.03567,83.38 1057.707,83.38 C1060.31567,83.38 1062.40867,83.5923333 1063.986,84.017 C1065.56333,84.4416667 1066.807,84.654 1067.717,84.654 C1068.74833,84.654 1069.56733,84.4265 1070.174,83.9715 C1070.78067,83.5165 1071.175,82.743 1071.357,81.651 L1071.357,81.651 L1074.269,64.816 C1071.23567,62.6926667 1067.41367,61.631 1062.803,61.631 C1057.22167,61.631 1052.18633,63.2993333 1047.697,66.636 C1043.20767,69.9726667 1039.29467,74.5226667 1035.958,80.286 L1035.958,80.286 L1034.593,69.002 C1034.28967,66.9393333 1033.683,65.4833333 1032.773,64.634 C1031.863,63.7846667 1030.25533,63.36 1027.95,63.36 L1027.95,63.36 L1014.755,63.36 L1014.755,156.726 L1037.232,156.726 Z M1111.852,156.726 L1111.852,113.956 L1116.948,113.956 C1118.768,113.956 1120.133,114.168333 1121.043,114.593 C1121.953,115.017667 1122.863,115.927667 1123.773,117.323 L1123.773,117.323 L1147.524,152.722 C1148.49467,154.178 1149.58667,155.209333 1150.8,155.816 C1152.01333,156.422667 1153.49967,156.726 1155.259,156.726 L1155.259,156.726 L1175.552,156.726 L1144.43,111.408 C1143.45933,110.012667 1142.48867,108.708333 1141.518,107.495 C1140.54733,106.281667 1139.425,105.22 1138.151,104.31 C1139.425,103.521333 1140.608,102.596167 1141.7,101.5345 C1142.792,100.472833 1143.85367,99.305 1144.885,98.031 L1144.885,98.031 L1173.914,63.36 L1153.348,63.36 C1151.46733,63.36 1149.95067,63.7088333 1148.798,64.4065 C1147.64533,65.1041667 1146.55333,66.0596667 1145.522,67.273 L1145.522,67.273 L1122.317,95.938 C1121.34633,97.0906667 1120.43633,97.8793333 1119.587,98.304 C1118.73767,98.7286667 1117.55467,98.941 1116.038,98.941 L1116.038,98.941 L1111.852,98.941 L1111.852,21.5 L1089.375,21.5 L1089.375,156.726 L1111.852,156.726 Z" id="Woodwork-Copy-39" fill="#252D39" fill-rule="nonzero"></path>
            <line x1="90.5" y1="-31" x2="90.5" y2="150" id="Line-2-Copy-10" stroke="#00550A" stroke-width="4" stroke-linecap="round" transform="translate(90.500000, 59.500000) rotate(-90.000000) translate(-90.500000, -59.500000) "></line>
            <path d="M106,126.5 C111.522847,126.5 116,130.977153 116,136.5 L116,167.5 C116,173.022847 111.522847,177.5 106,177.5 L75,177.5 C69.4771525,177.5 65,173.022847 65,167.5 L65,136.5 C65,130.977153 69.4771525,126.5 75,126.5 L106,126.5 Z M106,130.5 L75,130.5 C71.7616031,130.5 69.1224282,133.065575 69.0041385,136.275062 L69,136.5 L69,167.5 C69,170.738397 71.5655749,173.377572 74.7750617,173.495862 L75,173.5 L106,173.5 C109.238397,173.5 111.877572,170.934425 111.995862,167.724938 L112,167.5 L112,136.5 C112,133.261603 109.434425,130.622428 106.224938,130.504138 L106,130.5 Z" id="Rectangle-Copy-112" fill="#00B803" fill-rule="nonzero"></path>
            <circle id="Combined-Shape-Copy-34" fill="url(#linearGradient-1)" fill-rule="nonzero" cx="90.5" cy="26" r="25.5"></circle>
            <path d="M155.5,0.5 L181,51.5 L130,51.5 L155.5,0.5 Z M155.5,8.5 L136,47.5 L175,47.5 L155.5,8.5 Z" id="Combined-Shape-Copy-33" fill="#00B803"></path>
            <path d="M171,67.5 C176.522847,67.5 181,71.9771525 181,77.5 L181,108.5 C181,114.022847 176.522847,118.5 171,118.5 L140,118.5 C134.477153,118.5 130,114.022847 130,108.5 L130,77.5 C130,71.9771525 134.477153,67.5 140,67.5 L171,67.5 Z M171,71.5 L140,71.5 C136.761603,71.5 134.122428,74.0655749 134.004138,77.2750617 L134,77.5 L134,108.5 C134,111.738397 136.565575,114.377572 139.775062,114.495862 L140,114.5 L171,114.5 C174.238397,114.5 176.877572,111.934425 176.995862,108.724938 L177,108.5 L177,77.5 C177,74.2616031 174.434425,71.6224282 171.224938,71.5041385 L171,71.5 Z" id="Rectangle-Copy-114" fill="#00B803" fill-rule="nonzero"></path>
            <path d="M171,126.5 C176.522847,126.5 181,130.977153 181,136.5 L181,167.5 C181,173.022847 176.522847,177.5 171,177.5 L140,177.5 C134.477153,177.5 130,173.022847 130,167.5 L130,136.5 C130,130.977153 134.477153,126.5 140,126.5 L171,126.5 Z M171,130.5 L140,130.5 C136.761603,130.5 134.122428,133.065575 134.004138,136.275062 L134,136.5 L134,167.5 C134,170.738397 136.565575,173.377572 139.775062,173.495862 L140,173.5 L171,173.5 C174.238397,173.5 176.877572,170.934425 176.995862,167.724938 L177,167.5 L177,136.5 C177,133.261603 174.434425,130.622428 171.224938,130.504138 L171,130.5 Z" id="Rectangle-Copy-125" fill="#00B803" fill-rule="nonzero"></path>
            <path d="M106,67.5 C111.522847,67.5 116,71.9771525 116,77.5 L116,108.5 C116,114.022847 111.522847,118.5 106,118.5 L75,118.5 C69.4771525,118.5 65,114.022847 65,108.5 L65,77.5 C65,71.9771525 69.4771525,67.5 75,67.5 L106,67.5 Z M106,71.5 L75,71.5 C71.7616031,71.5 69.1224282,74.0655749 69.0041385,77.2750617 L69,77.5 L69,108.5 C69,111.738397 71.5655749,114.377572 74.7750617,114.495862 L75,114.5 L106,114.5 C109.238397,114.5 111.877572,111.934425 111.995862,108.724938 L112,108.5 L112,77.5 C112,74.2616031 109.434425,71.6224282 106.224938,71.5041385 L106,71.5 Z" id="Rectangle-Copy-128" fill="#00B803" fill-rule="nonzero"></path>
            <path d="M40.8013619,126.827704 C46.6209837,126.827704 51,131.145958 51,136.922833 L51,167.5 C51,173.022847 46.575072,177.5 40.8013619,177.5 L10.2486412,177.5 C4.44240289,177.5 0,173.022847 0,167.5 L0,136.922833 C0,131.399985 4.132261,126.5 10.2486412,126.5 L40.8013619,126.827704 Z" id="Rectangle-Copy-146" fill="url(#linearGradient-1)" fill-rule="nonzero"></path>
            <path d="M40.8013619,67.8277044 C46.6209837,67.8277044 51,72.1459575 51,77.9228326 L51,108.5 C51,114.022847 46.575072,118.5 40.8013619,118.5 L10.2486412,118.5 C4.44240289,118.5 0,114.022847 0,108.5 L0,77.9228326 C0,72.3999851 4.132261,67.5 10.2486412,67.5 L40.8013619,67.8277044 Z" id="Rectangle-Copy-145" fill="url(#linearGradient-1)" fill-rule="nonzero"></path>
            <path d="M40.8013619,0.827704359 C46.6209837,0.827704359 51,5.14595752 51,10.9228326 L51,41.5 C51,47.0228475 46.575072,51.5 40.8013619,51.5 L10.2486412,51.5 C4.44240289,51.5 0,47.0228475 0,41.5 L0,10.9228326 C0,5.39998512 4.132261,0.5 10.2486412,0.5 L40.8013619,0.827704359 Z" id="Rectangle-Copy-144" fill="url(#linearGradient-1)" fill-rule="nonzero"></path>
            <path d="M105.801362,126.827704 C111.620984,126.827704 116,131.145958 116,136.922833 L116,167.5 C116,173.022847 111.575072,177.5 105.801362,177.5 L75.2486412,177.5 C69.4424029,177.5 65,173.022847 65,167.5 L65,136.922833 C65,131.399985 69.132261,126.5 75.2486412,126.5 L105.801362,126.827704 Z" id="Rectangle-Copy-143" fill="url(#linearGradient-1)" fill-rule="nonzero"></path>
            <path d="M105.801362,67.8277044 C111.620984,67.8277044 116,72.1459575 116,77.9228326 L116,108.5 C116,114.022847 111.575072,118.5 105.801362,118.5 L75.2486412,118.5 C69.4424029,118.5 65,114.022847 65,108.5 L65,77.9228326 C65,72.3999851 69.132261,67.5 75.2486412,67.5 L105.801362,67.8277044 Z" id="Rectangle-Copy-142" fill="url(#linearGradient-1)" fill-rule="nonzero"></path>
        </g>
    </g>
</svg>